<svg width="193" height="172" viewBox="0 0 193 172" fill="none" xmlns="http://www.w3.org/2000/svg">
<g clip-path="url(#clip0)">
<path d="M192.568 0H0V171.049H192.568V0Z" fill="#FF563F"/>
<path d="M59.1501 18.4089L62.7236 50.7759L88.4568 30.3823L67.7821 55.7657L100.595 59.2906L67.7821 62.8155L88.4568 88.1989L62.7236 67.8053L59.1501 100.172L55.5765 67.8053L29.8433 88.1989L50.518 62.8155L17.7048 59.2906L50.518 55.7657L29.8433 30.3823L55.5765 50.7759L59.1501 18.4089Z" fill="#FFC54A" stroke="black" stroke-miterlimit="10"/>
<path d="M136.752 59.0454L140.325 91.4125L166.059 71.0189L145.384 96.4022L178.197 99.9271L145.384 103.452L166.059 128.835L140.325 108.442L136.752 140.809L133.178 108.442L107.445 128.835L128.12 103.452L95.3066 99.9271L128.12 96.4022L107.445 71.0189L133.178 91.4125L136.752 59.0454Z" fill="#FFC54A" stroke="black" stroke-miterlimit="10"/>
<path d="M128.676 158.764C147.195 158.764 162.208 143.955 162.208 125.688C162.208 107.421 147.195 92.6122 128.676 92.6122C110.157 92.6122 95.144 107.421 95.144 125.688C95.144 143.955 110.157 158.764 128.676 158.764Z" fill="#5B3DA2" stroke="black" stroke-miterlimit="10"/>
<path d="M106.88 136.443C116.605 136.443 124.489 128.666 124.489 119.073C124.489 109.48 116.605 101.704 106.88 101.704C97.1548 101.704 89.271 109.48 89.271 119.073C89.271 128.666 97.1548 136.443 106.88 136.443Z" fill="#FF563F" stroke="black" stroke-miterlimit="10"/>
<rect x="192.568" y="151.204" width="206.939" height="261.772" fill="#A9D063"/>
</g>
<rect x="1" y="1" width="190.568" height="169.049" stroke="black" stroke-width="2"/>
<defs>
<clipPath id="clip0">
</clipPath>
</defs>
</svg>
