<svg width="193" height="172" viewBox="0 0 193 172" fill="none" xmlns="http://www.w3.org/2000/svg">
<path d="M1 1H191.568V170.049H1V1Z" fill="#FF563F" stroke="black" stroke-width="2"/>
<path d="M59.1503 18.4089L62.7238 50.7759L88.457 30.3823L67.7823 55.7657L100.596 59.2906L67.7823 62.8155L88.457 88.1989L62.7238 67.8053L59.1503 100.172L55.5768 67.8053L29.8436 88.1989L50.5183 62.8155L17.7051 59.2906L50.5183 55.7657L29.8436 30.3823L55.5768 50.7759L59.1503 18.4089Z" fill="#FFC54A" stroke="black" stroke-miterlimit="10"/>
<path d="M136.752 59.0454L140.325 91.4125L166.059 71.0189L145.384 96.4022L178.197 99.9271L145.384 103.452L166.059 128.835L140.325 108.442L136.752 140.809L133.178 108.442L107.445 128.835L128.12 103.452L95.3066 99.9271L128.12 96.4022L107.445 71.0189L133.178 91.4125L136.752 59.0454Z" fill="#FFC54A" stroke="black" stroke-miterlimit="10"/>
<path d="M128.676 158.764C147.195 158.764 162.208 143.955 162.208 125.688C162.208 107.421 147.195 92.6122 128.676 92.6122C110.157 92.6122 95.144 107.421 95.144 125.688C95.144 143.955 110.157 158.764 128.676 158.764Z" fill="#5B3DA2" stroke="black" stroke-miterlimit="10"/>
<path d="M106.88 136.443C116.605 136.443 124.489 128.666 124.489 119.073C124.489 109.48 116.605 101.704 106.88 101.704C97.1548 101.704 89.271 109.48 89.271 119.073C89.271 128.666 97.1548 136.443 106.88 136.443Z" fill="#FF563F" stroke="black" stroke-miterlimit="10"/>
</svg>
