<svg width="141" height="156" viewBox="0 0 141 156" fill="none" xmlns="http://www.w3.org/2000/svg">
<path d="M70.5153 4.18555L81.3741 42.8415L111.842 18.2629L98.9564 56.2358L137.388 55.1165L105.671 77.9021L137.388 100.678L98.9564 99.5589L111.842 137.532L81.3741 112.953L70.5153 151.609L59.6474 112.953L29.1792 137.532L42.0651 99.5589L3.63379 100.678L35.3507 77.9021L3.63379 55.1165L42.0651 56.2358L29.1792 18.2629L59.6474 42.8415L70.5153 4.18555Z" fill="#FFC54A" stroke="black" stroke-width="2" stroke-miterlimit="10"/>
<path d="M70.985 105.303C84.6065 105.303 95.6488 93.8795 95.6488 79.7876C95.6488 65.6957 84.6065 54.272 70.985 54.272C57.3636 54.272 46.3213 65.6957 46.3213 79.7876C46.3213 93.8795 57.3636 105.303 70.985 105.303Z" fill="#E2E229" stroke="black" stroke-width="2" stroke-miterlimit="10"/>
</svg>
