<svg width="536" height="132" viewBox="0 0 536 132" fill="none" xmlns="http://www.w3.org/2000/svg">
<path d="M504.904 77.5663L476.441 130.487H533.358L504.904 77.5663Z" fill="#F896BF" stroke="black" stroke-width="2" stroke-miterlimit="10"/>
<path d="M506.327 53.9404L479.287 1.01917H533.358L506.327 53.9404Z" fill="#F896BF" stroke="black" stroke-width="2" stroke-miterlimit="10"/>
<path d="M32.0223 77.5663L2.13623 130.487H61.8988L32.0223 77.5663Z" fill="#F896BF" stroke="black" stroke-width="2" stroke-miterlimit="10"/>
<path d="M33.9192 53.9404L4.0332 1.01917H63.7956L33.9192 53.9404Z" fill="#F896BF" stroke="black" stroke-width="2" stroke-miterlimit="10"/>
<path d="M91.31 77.5663L61.8984 130.487H120.712L91.31 77.5663Z" fill="#F896BF" stroke="black" stroke-width="2" stroke-miterlimit="10"/>
<path d="M150.119 77.5663L120.712 130.487H179.526L150.119 77.5663Z" fill="#F896BF" stroke="black" stroke-width="2" stroke-miterlimit="10"/>
<path d="M209.403 77.5663L179.526 130.487H239.289L209.403 77.5663Z" fill="#F896BF" stroke="black" stroke-width="2" stroke-miterlimit="10"/>
<path d="M269.649 77.5663L239.289 130.487H300L269.649 77.5663Z" fill="#F896BF" stroke="black" stroke-width="2" stroke-miterlimit="10"/>
<path d="M329.407 77.5663L300 130.487H358.814L329.407 77.5663Z" fill="#F896BF" stroke="black" stroke-width="2" stroke-miterlimit="10"/>
<path d="M388.695 77.5663L358.814 130.487H418.576L388.695 77.5663Z" fill="#F896BF" stroke="black" stroke-width="2" stroke-miterlimit="10"/>
<path d="M447.978 77.5663L418.576 130.487H477.39L447.978 77.5663Z" fill="#F896BF" stroke="black" stroke-width="2" stroke-miterlimit="10"/>
<path d="M93.6818 53.9404L63.7959 1.01917H123.558L93.6818 53.9404Z" fill="#F896BF" stroke="black" stroke-width="2" stroke-miterlimit="10"/>
<path d="M152.491 53.9404L123.558 1.01917H181.423L152.491 53.9404Z" fill="#F896BF" stroke="black" stroke-width="2" stroke-miterlimit="10"/>
<path d="M210.826 53.9404L181.424 1.01917H240.238L210.826 53.9404Z" fill="#F896BF" stroke="black" stroke-width="2" stroke-miterlimit="10"/>
<path d="M271.072 53.9404L240.237 1.01917H301.897L271.072 53.9404Z" fill="#F896BF" stroke="black" stroke-width="2" stroke-miterlimit="10"/>
<path d="M331.304 53.9404L301.897 1.01917H360.711L331.304 53.9404Z" fill="#F896BF" stroke="black" stroke-width="2" stroke-miterlimit="10"/>
<path d="M390.592 53.9404L360.711 1.01917H420.474L390.592 53.9404Z" fill="#F896BF" stroke="black" stroke-width="2" stroke-miterlimit="10"/>
<path d="M450.35 53.9404L420.474 1.01917H480.236L450.35 53.9404Z" fill="#F896BF" stroke="black" stroke-width="2" stroke-miterlimit="10"/>
</svg>
