<svg width="918" height="112" viewBox="0 0 918 112" fill="none" xmlns="http://www.w3.org/2000/svg">
<g clip-path="url(#clip0)">
<path d="M917.029 0H0.670898V55.7564H917.029V0Z" fill="#FDC54A"/>
<path d="M917.029 56H0.670898V111.756H917.029V56Z" fill="#5B3DA2"/>
<path d="M689.056 84.056L686.824 86.396V93.308C686.824 93.812 686.656 94.232 686.32 94.568C685.96 94.928 685.528 95.108 685.024 95.108C684.544 95.108 684.124 94.928 683.764 94.568C683.428 94.232 683.26 93.812 683.26 93.308V71.528C683.26 71.072 683.428 70.64 683.764 70.232C684.172 69.896 684.592 69.728 685.024 69.728C685.48 69.728 685.912 69.896 686.32 70.232C686.656 70.64 686.824 71.072 686.824 71.528V81.284L696.796 70.628C697.084 70.244 697.468 70.016 697.948 69.944C698.452 69.872 698.896 69.992 699.28 70.304C699.664 70.592 699.892 70.976 699.964 71.456C700.036 71.96 699.916 72.404 699.604 72.788L691.54 81.464L699.712 92.192C700.048 92.576 700.192 93.008 700.144 93.488C700.072 93.992 699.844 94.4 699.46 94.712C699.124 94.976 698.752 95.108 698.344 95.108C697.792 95.108 697.336 94.892 696.976 94.46L689.056 84.056ZM716.485 92.336C714.709 94.112 712.573 95 710.077 95C707.605 95 705.481 94.112 703.705 92.336C701.929 90.56 701.041 88.436 701.041 85.964C701.041 83.468 701.929 81.332 703.705 79.556C705.457 77.804 707.581 76.928 710.077 76.928C712.597 76.928 714.733 77.804 716.485 79.556C718.237 81.308 719.113 83.444 719.113 85.964C719.113 88.46 718.237 90.584 716.485 92.336ZM713.965 82.076C712.837 81.02 711.541 80.492 710.077 80.492C708.565 80.492 707.281 81.02 706.225 82.076C705.145 83.156 704.605 84.452 704.605 85.964C704.605 87.452 705.145 88.736 706.225 89.816C707.281 90.896 708.565 91.436 710.077 91.436C711.589 91.436 712.885 90.896 713.965 89.816C715.021 88.688 715.549 87.404 715.549 85.964C715.549 84.5 715.021 83.204 713.965 82.076ZM738.003 82.832C737.859 83.288 737.583 83.648 737.175 83.912C736.743 84.152 736.287 84.2 735.807 84.056C735.351 83.96 734.991 83.696 734.727 83.264C733.695 81.44 732.111 80.528 729.975 80.528C728.535 80.528 727.251 81.056 726.123 82.112C725.043 83.192 724.503 84.488 724.503 86C724.503 87.488 725.043 88.772 726.123 89.852C727.203 90.932 728.487 91.472 729.975 91.472C731.967 91.472 733.503 90.632 734.583 88.952C734.823 88.568 735.207 88.316 735.735 88.196C736.215 88.076 736.659 88.148 737.067 88.412C737.451 88.652 737.703 89.024 737.823 89.528C737.919 89.816 737.835 90.272 737.571 90.896C736.755 92.192 735.675 93.2 734.331 93.92C733.011 94.664 731.559 95.036 729.975 95.036C727.503 95.036 725.379 94.148 723.603 92.372C721.851 90.62 720.975 88.496 720.975 86C720.975 83.48 721.851 81.344 723.603 79.592C725.355 77.84 727.479 76.964 729.975 76.964C731.607 76.964 733.119 77.372 734.511 78.188C735.855 78.908 736.959 80 737.823 81.464C738.063 81.704 738.123 82.16 738.003 82.832ZM757.02 83.768L753.276 93.74C753.084 94.316 752.736 94.688 752.232 94.856C752.208 94.856 752.184 94.868 752.16 94.892H752.088C752.064 94.916 752.04 94.928 752.016 94.928H751.944C751.92 94.928 751.908 94.94 751.908 94.964H751.512C751.344 94.964 751.164 94.928 750.972 94.856C750.468 94.664 750.108 94.292 749.892 93.74L746.148 83.768L742.368 93.812C742.2 94.268 741.9 94.604 741.468 94.82C741.036 95.036 740.58 95.048 740.1 94.856C739.644 94.688 739.308 94.376 739.092 93.92C738.876 93.488 738.864 93.032 739.056 92.552L744.456 78.152C744.744 77.36 745.308 76.964 746.148 76.964C746.988 76.964 747.564 77.36 747.876 78.152L751.584 88.124L755.328 78.152C755.616 77.36 756.18 76.964 757.02 76.964C757.86 76.964 758.436 77.36 758.748 78.152L764.148 92.552C764.316 92.984 764.292 93.44 764.076 93.92C763.908 94.352 763.584 94.664 763.104 94.856C762.84 95.024 762.384 95.012 761.736 94.82C761.304 94.628 760.992 94.292 760.8 93.812L757.02 83.768ZM780.997 92.336C779.221 94.112 777.085 95 774.589 95C772.117 95 769.993 94.112 768.217 92.336C766.441 90.56 765.553 88.436 765.553 85.964C765.553 83.468 766.441 81.332 768.217 79.556C769.969 77.804 772.093 76.928 774.589 76.928C777.109 76.928 779.245 77.804 780.997 79.556C782.749 81.308 783.625 83.444 783.625 85.964C783.625 88.46 782.749 90.584 780.997 92.336ZM778.477 82.076C777.349 81.02 776.053 80.492 774.589 80.492C773.077 80.492 771.793 81.02 770.737 82.076C769.657 83.156 769.117 84.452 769.117 85.964C769.117 87.452 769.657 88.736 770.737 89.816C771.793 90.896 773.077 91.436 774.589 91.436C776.101 91.436 777.397 90.896 778.477 89.816C779.533 88.688 780.061 87.404 780.061 85.964C780.061 84.5 779.533 83.204 778.477 82.076ZM811.011 93.272C811.011 93.776 810.831 94.196 810.471 94.532C810.111 94.892 809.691 95.072 809.211 95.072C808.731 95.072 808.311 94.892 807.951 94.532C807.615 94.196 807.447 93.776 807.447 93.272V84.2C807.447 83.192 807.087 82.328 806.367 81.608C805.599 80.912 804.735 80.564 803.775 80.564C802.815 80.564 801.951 80.912 801.183 81.608C800.463 82.328 800.103 83.192 800.103 84.2V93.272C800.103 93.776 799.935 94.196 799.599 94.532C799.239 94.892 798.819 95.072 798.339 95.072C797.859 95.072 797.439 94.892 797.079 94.532C796.719 94.196 796.539 93.776 796.539 93.272V84.2C796.539 83.24 796.191 82.376 795.495 81.608C794.727 80.912 793.863 80.564 792.903 80.564C791.943 80.564 791.079 80.912 790.311 81.608C789.591 82.328 789.231 83.192 789.231 84.2V93.272C789.231 93.776 789.063 94.196 788.727 94.532C788.367 94.892 787.947 95.072 787.467 95.072C786.963 95.072 786.543 94.892 786.207 94.532C785.847 94.196 785.667 93.776 785.667 93.272V84.2C785.667 82.232 786.375 80.54 787.791 79.124C789.207 77.708 790.911 77 792.903 77C795.135 77 796.947 77.828 798.339 79.484C799.755 77.828 801.567 77 803.775 77C805.767 77 807.471 77.708 808.887 79.124C810.303 80.54 811.011 82.232 811.011 84.2C811.011 84.272 810.999 84.32 810.975 84.344C810.999 84.368 811.011 84.428 811.011 84.524V93.272ZM816.146 87.728C816.53 88.832 817.19 89.72 818.126 90.392C819.11 91.088 820.178 91.436 821.33 91.436C821.786 91.436 822.026 91.424 822.05 91.4L822.338 91.364L822.626 91.328L822.842 91.292L823.022 91.256C823.766 91.088 824.546 90.752 825.362 90.248C825.77 89.984 826.214 89.948 826.694 90.14C827.198 90.332 827.546 90.644 827.738 91.076C828.17 91.964 827.882 92.756 826.874 93.452C825.674 94.148 824.618 94.604 823.706 94.82L823.454 94.856L823.166 94.892L822.806 94.928L822.41 94.964L821.87 95H821.33C818.834 95 816.698 94.112 814.922 92.336C813.17 90.584 812.294 88.46 812.294 85.964C812.294 83.444 813.17 81.308 814.922 79.556C816.674 77.804 818.81 76.928 821.33 76.928C823.754 76.928 825.806 77.696 827.486 79.232C829.406 80.96 830.366 83.204 830.366 85.964C830.366 86.396 830.198 86.816 829.862 87.224C829.454 87.56 829.022 87.728 828.566 87.728H816.146ZM826.55 84.164C826.19 82.964 825.494 82.04 824.462 81.392C823.574 80.792 822.53 80.492 821.33 80.492C820.178 80.492 819.11 80.84 818.126 81.536C817.19 82.208 816.53 83.084 816.146 84.164H826.55ZM849.399 93.164C849.399 93.692 849.231 94.124 848.895 94.46C848.559 94.796 848.127 94.964 847.599 94.964C847.263 94.964 846.891 94.796 846.483 94.46C846.075 94.052 845.871 93.62 845.871 93.164C844.383 94.364 842.607 94.964 840.543 94.964C837.999 94.964 835.851 94.124 834.099 92.444C832.323 90.74 831.435 88.628 831.435 86.108C831.435 83.588 832.323 81.44 834.099 79.664C835.875 77.888 838.023 77 840.543 77C843.063 77 845.175 77.888 846.879 79.664C848.559 81.416 849.399 83.564 849.399 86.108V93.164ZM836.619 89.888C837.651 90.92 838.959 91.436 840.543 91.436C842.055 91.436 843.327 90.92 844.359 89.888C845.367 88.88 845.871 87.62 845.871 86.108C845.871 84.572 845.367 83.264 844.359 82.184C843.327 81.08 842.055 80.528 840.543 80.528C839.031 80.528 837.723 81.08 836.619 82.184C835.515 83.288 834.963 84.596 834.963 86.108C834.963 87.596 835.515 88.856 836.619 89.888ZM876.823 93.272C876.823 93.776 876.643 94.196 876.283 94.532C875.923 94.892 875.503 95.072 875.023 95.072C874.543 95.072 874.123 94.892 873.763 94.532C873.427 94.196 873.259 93.776 873.259 93.272V84.2C873.259 83.192 872.899 82.328 872.179 81.608C871.411 80.912 870.547 80.564 869.587 80.564C868.627 80.564 867.763 80.912 866.995 81.608C866.275 82.328 865.915 83.192 865.915 84.2V93.272C865.915 93.776 865.747 94.196 865.411 94.532C865.051 94.892 864.631 95.072 864.151 95.072C863.671 95.072 863.251 94.892 862.891 94.532C862.531 94.196 862.351 93.776 862.351 93.272V84.2C862.351 83.24 862.003 82.376 861.307 81.608C860.539 80.912 859.675 80.564 858.715 80.564C857.755 80.564 856.891 80.912 856.123 81.608C855.403 82.328 855.043 83.192 855.043 84.2V93.272C855.043 93.776 854.875 94.196 854.539 94.532C854.179 94.892 853.759 95.072 853.279 95.072C852.775 95.072 852.355 94.892 852.019 94.532C851.659 94.196 851.479 93.776 851.479 93.272V84.2C851.479 82.232 852.187 80.54 853.603 79.124C855.019 77.708 856.723 77 858.715 77C860.947 77 862.759 77.828 864.151 79.484C865.567 77.828 867.379 77 869.587 77C871.579 77 873.283 77.708 874.699 79.124C876.115 80.54 876.823 82.232 876.823 84.2C876.823 84.272 876.811 84.32 876.787 84.344C876.811 84.368 876.823 84.428 876.823 84.524V93.272ZM882.355 102.272C882.355 102.704 882.187 103.124 881.851 103.532C881.443 103.868 881.023 104.036 880.591 104.036C880.087 104.036 879.667 103.868 879.331 103.532C878.971 103.172 878.791 102.752 878.791 102.272V86.108C878.791 83.636 879.679 81.512 881.455 79.736C883.231 77.96 885.355 77.072 887.827 77.072C890.323 77.072 892.459 77.96 894.235 79.736C895.987 81.488 896.863 83.612 896.863 86.108C896.863 88.628 895.987 90.764 894.235 92.516C892.483 94.268 890.347 95.144 887.827 95.144C885.811 95.144 883.987 94.532 882.355 93.308V102.272ZM882.355 86.144C882.355 87.632 882.895 88.916 883.975 89.996C885.031 91.052 886.315 91.58 887.827 91.58C889.339 91.58 890.635 91.04 891.715 89.96C892.771 88.904 893.299 87.62 893.299 86.108C893.299 84.668 892.771 83.384 891.715 82.256C890.635 81.176 889.339 80.636 887.827 80.636C886.315 80.636 885.031 81.164 883.975 82.22C882.895 83.3 882.355 84.596 882.355 86.108V86.144Z" fill="white"/>
<path d="M700.994 87.3019C708.297 87.6452 714.714 86.0035 719.987 81.8186" stroke="white" stroke-width="2" stroke-miterlimit="10" stroke-linecap="round"/>
<path d="M700.893 85.3005C707.453 86.4762 713.531 85.2331 718.988 80.8974" stroke="#5B3DA2" stroke-width="2" stroke-miterlimit="10" stroke-linecap="round"/>
<path d="M43.944 33.976C43.608 33.976 43.328 33.864 43.104 33.64C42.864 33.4 42.744 33.112 42.744 32.776V18.328C42.76 18.04 42.88 17.784 43.104 17.56C43.328 17.32 43.608 17.2 43.944 17.2H52.296C52.616 17.2 52.896 17.32 53.136 17.56C53.376 17.768 53.496 18.048 53.496 18.4C53.496 18.736 53.376 19.024 53.136 19.264C52.864 19.488 52.584 19.6 52.296 19.6H45.144V24.352C47.864 24.352 49.232 24.36 49.248 24.376C50.576 24.52 51.672 25.048 52.536 25.96C53.4 26.872 53.832 27.952 53.832 29.2C53.832 30.464 53.376 31.568 52.464 32.512C51.584 33.44 50.48 33.928 49.152 33.976H43.944ZM45.144 26.752V31.576H48.96C49.68 31.576 50.264 31.352 50.712 30.904C51.176 30.44 51.424 29.872 51.456 29.2C51.424 28.512 51.176 27.936 50.712 27.472C50.232 26.992 49.648 26.752 48.96 26.752H45.144ZM63.2211 31.672C63.5411 31.672 63.8131 31.784 64.0371 32.008C64.2611 32.28 64.3731 32.56 64.3731 32.848C64.3731 33.168 64.2611 33.44 64.0371 33.664C63.8131 33.888 63.5411 34 63.2211 34H55.5891C55.2691 34 54.9971 33.888 54.7731 33.664C54.5491 33.44 54.4371 33.168 54.4371 32.848C54.4371 32.608 54.5411 32.336 54.7491 32.032L61.7571 23.128C62.2531 22.008 62.0611 21.032 61.1811 20.2C60.2851 19.352 59.2851 19.24 58.1811 19.864C57.3811 20.344 56.9811 21.04 56.9811 21.952C56.9811 22.24 56.8691 22.52 56.6451 22.792C56.3731 23.016 56.0851 23.128 55.7811 23.128C55.4931 23.128 55.2131 23.016 54.9411 22.792C54.7011 22.552 54.5811 22.272 54.5811 21.952C54.5811 20.672 55.0451 19.568 55.9731 18.64V18.616C56.7251 17.864 57.6051 17.408 58.6131 17.248C59.7651 17.072 60.7171 17.184 61.4691 17.584C62.7171 18.144 63.5731 19.024 64.0371 20.224C64.3251 20.816 64.4531 21.512 64.4211 22.312C64.4051 23.096 64.1811 23.76 63.7491 24.304L57.9651 31.672H63.2211ZM75.5723 29.152C75.5403 30.496 75.0603 31.632 74.1323 32.56C73.1403 33.504 71.9963 33.976 70.7003 33.976C69.3723 33.976 68.2363 33.504 67.2923 32.56C66.3643 31.632 65.8843 30.496 65.8523 29.152V22.024C65.8843 20.68 66.3643 19.544 67.2923 18.616C68.2363 17.672 69.3723 17.2 70.7003 17.2C71.9963 17.2 73.1403 17.672 74.1323 18.616C75.0603 19.544 75.5403 20.68 75.5723 22.024V29.152ZM73.1963 22.072C73.1963 21.384 72.9563 20.8 72.4763 20.32C71.9803 19.824 71.3883 19.576 70.7003 19.576C70.0123 19.576 69.4283 19.824 68.9483 20.32C68.4683 20.8 68.2283 21.384 68.2283 22.072V29.104C68.2283 29.776 68.4683 30.368 68.9483 30.88C69.4283 31.36 70.0123 31.6 70.7003 31.6C71.4043 31.6 71.9963 31.36 72.4763 30.88C72.9563 30.368 73.1963 29.776 73.1963 29.104V22.072ZM77.0805 31.6H77.5605C78.0085 31.552 78.4085 31.328 78.7605 30.928C79.2565 30.448 79.5045 29.864 79.5045 29.176V18.424C79.5045 18.136 79.6165 17.856 79.8405 17.584C80.0005 17.424 80.1925 17.32 80.4165 17.272H80.5125C80.5285 17.256 80.5925 17.248 80.7045 17.248H89.3205C89.6405 17.248 89.9205 17.368 90.1605 17.608C90.4005 17.848 90.5205 18.128 90.5205 18.448V31.6H91.7205V36.712C91.7205 37.048 91.6085 37.328 91.3845 37.552C91.1285 37.792 90.8405 37.912 90.5205 37.912C90.1845 37.912 89.8965 37.792 89.6565 37.552C89.4165 37.328 89.2965 37.048 89.2965 36.712V34H79.5045V36.712C79.5045 37.048 79.3845 37.328 79.1445 37.552C78.9045 37.792 78.6165 37.912 78.2805 37.912C77.9765 37.912 77.6885 37.792 77.4165 37.552C77.1925 37.328 77.0805 37.048 77.0805 36.712V31.6ZM88.1205 19.648H81.9045V29.224C81.8885 30.104 81.6725 30.896 81.2565 31.6H88.1205V19.648ZM94.8219 28.792C95.1419 29.016 95.3019 29.248 95.3019 29.488C95.4299 30.192 95.7579 30.728 96.2859 31.096C96.7819 31.496 97.4299 31.696 98.2299 31.696C98.9979 31.696 99.6379 31.464 100.15 31C100.662 30.536 100.918 29.976 100.918 29.32C100.918 28.664 100.662 28.08 100.15 27.568C99.6379 27.056 98.9979 26.8 98.2299 26.8C97.8459 26.8 97.5179 26.688 97.2459 26.464C97.0059 26.24 96.8859 25.96 96.8859 25.624C96.8859 25.288 97.0059 25 97.2459 24.76C97.5179 24.536 97.8459 24.424 98.2299 24.424C99.0139 24.424 99.6539 24.176 100.15 23.68C100.662 23.168 100.918 22.576 100.918 21.904C100.918 21.248 100.662 20.688 100.15 20.224C99.6379 19.76 98.9979 19.528 98.2299 19.528C97.5739 19.528 96.9419 19.72 96.3339 20.104C95.7739 20.472 95.4299 20.912 95.3019 21.424C95.2059 21.76 95.0299 22.024 94.7739 22.216C94.5659 22.424 94.2459 22.488 93.8139 22.408C92.9979 22.264 92.5899 21.816 92.5899 21.064C92.8779 19.88 93.5579 18.944 94.6299 18.256C95.6699 17.552 96.8699 17.2 98.2299 17.2C99.6699 17.2 100.934 17.648 102.022 18.544C103.11 19.456 103.654 20.576 103.654 21.904C103.654 23.44 103.014 24.68 101.734 25.624C103.014 26.584 103.654 27.816 103.654 29.32C103.654 30.584 103.11 31.688 102.022 32.632C100.934 33.576 99.6699 34.048 98.2299 34.048C96.8059 34.048 95.5499 33.648 94.4619 32.848C93.4379 32.064 92.8139 31.064 92.5899 29.848C92.5899 29.096 92.9979 28.64 93.8139 28.48C94.1819 28.48 94.5179 28.584 94.8219 28.792ZM114.736 29.152C114.704 30.496 114.224 31.632 113.296 32.56C112.304 33.504 111.16 33.976 109.864 33.976C108.536 33.976 107.4 33.504 106.456 32.56C105.528 31.632 105.048 30.496 105.016 29.152V22.024C105.048 20.68 105.528 19.544 106.456 18.616C107.4 17.672 108.536 17.2 109.864 17.2C111.16 17.2 112.304 17.672 113.296 18.616C114.224 19.544 114.704 20.68 114.736 22.024V29.152ZM112.36 22.072C112.36 21.384 112.12 20.8 111.64 20.32C111.144 19.824 110.552 19.576 109.864 19.576C109.176 19.576 108.592 19.824 108.112 20.32C107.632 20.8 107.392 21.384 107.392 22.072V29.104C107.392 29.776 107.632 30.368 108.112 30.88C108.592 31.36 109.176 31.6 109.864 31.6C110.568 31.6 111.16 31.36 111.64 30.88C112.12 30.368 112.36 29.776 112.36 29.104V22.072ZM117.881 33.328C117.641 33.696 117.305 33.88 116.873 33.88C116.617 33.88 116.401 33.816 116.225 33.688C115.937 33.512 115.761 33.256 115.697 32.92C115.633 32.76 115.689 32.464 115.865 32.032L123.929 19.648H117.017C116.681 19.648 116.401 19.528 116.177 19.288C115.937 19.064 115.817 18.784 115.817 18.448C115.817 18.112 115.937 17.824 116.177 17.584C116.401 17.36 116.681 17.248 117.017 17.248H126.137C126.585 17.248 126.929 17.448 127.169 17.848C127.393 18.264 127.385 18.68 127.145 19.096L117.881 33.328Z" fill="black"/>
<path d="M45.12 75.648V88.8C45.12 89.136 45 89.424 44.76 89.664C44.488 89.888 44.208 90 43.92 90C43.584 90 43.304 89.888 43.08 89.664C42.84 89.424 42.72 89.136 42.72 88.8V74.448C42.72 74.096 42.84 73.816 43.08 73.608C43.304 73.368 43.584 73.248 43.92 73.248H52.272C52.592 73.248 52.872 73.368 53.112 73.608C53.352 73.816 53.472 74.096 53.472 74.448C53.472 74.784 53.352 75.072 53.112 75.312C52.84 75.536 52.56 75.648 52.272 75.648H45.12ZM56.4135 94.848C56.4135 95.136 56.3015 95.416 56.0775 95.688C55.8055 95.912 55.5255 96.024 55.2375 96.024C54.9015 96.024 54.6215 95.912 54.3975 95.688C54.1575 95.448 54.0375 95.168 54.0375 94.848V84.072C54.0375 82.424 54.6295 81.008 55.8135 79.824C56.9975 78.64 58.4135 78.048 60.0615 78.048C61.7255 78.048 63.1495 78.64 64.3335 79.824C65.5015 80.992 66.0855 82.408 66.0855 84.072C66.0855 85.752 65.5015 87.176 64.3335 88.344C63.1655 89.512 61.7415 90.096 60.0615 90.096C58.7175 90.096 57.5015 89.688 56.4135 88.872V94.848ZM56.4135 84.096C56.4135 85.088 56.7735 85.944 57.4935 86.664C58.1975 87.368 59.0535 87.72 60.0615 87.72C61.0695 87.72 61.9335 87.36 62.6535 86.64C63.3575 85.936 63.7095 85.08 63.7095 84.072C63.7095 83.112 63.3575 82.256 62.6535 81.504C61.9335 80.784 61.0695 80.424 60.0615 80.424C59.0535 80.424 58.1975 80.776 57.4935 81.48C56.7735 82.2 56.4135 83.064 56.4135 84.072V84.096ZM77.5997 88.224C76.4157 89.408 74.9917 90 73.3277 90C71.6797 90 70.2637 89.408 69.0797 88.224C67.8957 87.04 67.3037 85.624 67.3037 83.976C67.3037 82.312 67.8957 80.888 69.0797 79.704C70.2477 78.536 71.6637 77.952 73.3277 77.952C75.0077 77.952 76.4317 78.536 77.5997 79.704C78.7677 80.872 79.3517 82.296 79.3517 83.976C79.3517 85.64 78.7677 87.056 77.5997 88.224ZM75.9197 81.384C75.1677 80.68 74.3037 80.328 73.3277 80.328C72.3197 80.328 71.4637 80.68 70.7597 81.384C70.0397 82.104 69.6797 82.968 69.6797 83.976C69.6797 84.968 70.0397 85.824 70.7597 86.544C71.4637 87.264 72.3197 87.624 73.3277 87.624C74.3357 87.624 75.1997 87.264 75.9197 86.544C76.6237 85.792 76.9757 84.936 76.9757 83.976C76.9757 83 76.6237 82.136 75.9197 81.384ZM91.8728 82.512L89.3768 89.16C89.2488 89.544 89.0168 89.792 88.6808 89.904C88.6648 89.904 88.6488 89.912 88.6328 89.928H88.5848C88.5688 89.944 88.5528 89.952 88.5368 89.952H88.4888C88.4728 89.952 88.4648 89.96 88.4648 89.976H88.2008C88.0888 89.976 87.9688 89.952 87.8408 89.904C87.5048 89.776 87.2648 89.528 87.1208 89.16L84.6248 82.512L82.1048 89.208C81.9928 89.512 81.7928 89.736 81.5048 89.88C81.2168 90.024 80.9128 90.032 80.5928 89.904C80.2888 89.792 80.0648 89.584 79.9207 89.28C79.7767 88.992 79.7687 88.688 79.8967 88.368L83.4967 78.768C83.6888 78.24 84.0648 77.976 84.6248 77.976C85.1848 77.976 85.5688 78.24 85.7768 78.768L88.2488 85.416L90.7448 78.768C90.9368 78.24 91.3128 77.976 91.8728 77.976C92.4328 77.976 92.8168 78.24 93.0248 78.768L96.6248 88.368C96.7368 88.656 96.7208 88.96 96.5768 89.28C96.4648 89.568 96.2488 89.776 95.9288 89.904C95.7528 90.016 95.4488 90.008 95.0168 89.88C94.7288 89.752 94.5208 89.528 94.3928 89.208L91.8728 82.512ZM107.858 88.224C106.674 89.408 105.25 90 103.586 90C101.938 90 100.522 89.408 99.3375 88.224C98.1535 87.04 97.5615 85.624 97.5615 83.976C97.5615 82.312 98.1535 80.888 99.3375 79.704C100.506 78.536 101.922 77.952 103.586 77.952C105.266 77.952 106.69 78.536 107.858 79.704C109.026 80.872 109.609 82.296 109.609 83.976C109.609 85.64 109.026 87.056 107.858 88.224ZM106.178 81.384C105.426 80.68 104.562 80.328 103.586 80.328C102.578 80.328 101.722 80.68 101.018 81.384C100.298 82.104 99.9375 82.968 99.9375 83.976C99.9375 84.968 100.298 85.824 101.018 86.544C101.722 87.264 102.578 87.624 103.586 87.624C104.594 87.624 105.458 87.264 106.178 86.544C106.882 85.792 107.234 84.936 107.234 83.976C107.234 83 106.882 82.136 106.178 81.384ZM114.907 89.952C113.771 89.952 112.811 89.56 112.027 88.776C111.243 87.992 110.851 87.032 110.851 85.896V82.536C110.851 82.312 110.915 81.96 111.043 81.48V81.384C111.107 79.912 111.315 78.792 111.667 78.024C112.403 76.232 113.835 75.336 115.963 75.336C118.155 75.336 119.251 76.352 119.251 78.384C119.251 79.488 119.019 80.368 118.555 81.024C118.107 81.616 117.467 82.016 116.635 82.224C117.131 82.512 117.507 82.784 117.763 83.04C118.563 83.84 118.963 84.792 118.963 85.896C118.963 87.016 118.563 87.976 117.763 88.776C116.979 89.56 116.027 89.952 114.907 89.952ZM116.851 85.944C116.851 85.416 116.659 84.96 116.275 84.576C115.923 84.192 115.467 84 114.907 84C114.363 84 113.899 84.192 113.515 84.576C113.147 84.992 112.963 85.448 112.963 85.944C112.963 86.456 113.147 86.92 113.515 87.336C113.931 87.704 114.395 87.888 114.907 87.888C115.451 87.888 115.907 87.704 116.275 87.336C116.659 86.952 116.851 86.496 116.851 85.968V85.944ZM114.691 81.456C116.147 81.104 116.875 80.328 116.875 79.128C116.875 78.632 116.819 78.28 116.707 78.072C116.595 77.816 116.211 77.688 115.555 77.688C115.091 77.688 114.603 78.04 114.091 78.744C113.579 79.448 113.291 80.424 113.227 81.672L114.691 81.456ZM132.435 88.776C132.435 89.128 132.323 89.416 132.099 89.64C131.875 89.864 131.587 89.976 131.235 89.976C131.011 89.976 130.763 89.864 130.491 89.64C130.219 89.368 130.083 89.08 130.083 88.776C129.091 89.576 127.907 89.976 126.531 89.976C124.835 89.976 123.403 89.416 122.235 88.296C121.051 87.16 120.459 85.752 120.459 84.072C120.459 82.392 121.051 80.96 122.235 79.776C123.419 78.592 124.851 78 126.531 78C128.211 78 129.619 78.592 130.755 79.776C131.875 80.944 132.435 82.376 132.435 84.072V88.776ZM123.915 86.592C124.603 87.28 125.475 87.624 126.531 87.624C127.539 87.624 128.387 87.28 129.075 86.592C129.747 85.92 130.083 85.08 130.083 84.072C130.083 83.048 129.747 82.176 129.075 81.456C128.387 80.72 127.539 80.352 126.531 80.352C125.523 80.352 124.651 80.72 123.915 81.456C123.179 82.192 122.811 83.064 122.811 84.072C122.811 85.064 123.179 85.904 123.915 86.592ZM150.876 87.576C151.164 87.576 151.444 87.688 151.716 87.912C151.956 88.152 152.076 88.44 152.076 88.776C152.076 89.112 151.956 89.392 151.716 89.616C151.476 89.856 151.196 89.976 150.876 89.976H142.5C142.164 89.976 141.884 89.856 141.66 89.616C141.42 89.392 141.3 89.112 141.3 88.776V74.424C141.3 74.088 141.42 73.8 141.66 73.56C141.884 73.336 142.164 73.224 142.5 73.224H150.876C151.164 73.224 151.444 73.336 151.716 73.56C151.956 73.8 152.076 74.088 152.076 74.424C152.076 74.76 151.956 75.04 151.716 75.264C151.476 75.504 151.196 75.624 150.876 75.624H143.7V80.448H149.172C149.46 80.448 149.74 80.56 150.012 80.784C150.252 81.024 150.372 81.312 150.372 81.648C150.372 81.984 150.252 82.264 150.012 82.488C149.772 82.728 149.492 82.848 149.172 82.848H143.7V87.576H150.876ZM156.702 84.048L155.958 84.552V88.752C155.958 89.088 155.838 89.368 155.598 89.592C155.358 89.832 155.078 89.952 154.758 89.952C154.438 89.952 154.158 89.832 153.918 89.592C153.694 89.368 153.582 89.088 153.582 88.752V79.08C153.582 78.792 153.694 78.512 153.918 78.24C154.19 78.016 154.47 77.904 154.758 77.904C155.046 77.904 155.326 78.016 155.598 78.24C155.838 78.48 155.958 78.76 155.958 79.08V81.744L161.406 78.168C161.614 77.96 161.902 77.872 162.27 77.904C162.606 77.936 162.878 78.072 163.086 78.312C163.294 78.52 163.382 78.808 163.35 79.176C163.334 79.496 163.19 79.768 162.918 79.992L158.718 82.752L163.086 88.008C163.294 88.216 163.382 88.504 163.35 88.872C163.334 89.176 163.19 89.44 162.918 89.664C162.71 89.856 162.462 89.952 162.174 89.952C161.79 89.952 161.486 89.808 161.262 89.52L156.702 84.048ZM176.076 88.776C176.076 89.128 175.964 89.416 175.74 89.64C175.516 89.864 175.228 89.976 174.876 89.976C174.652 89.976 174.404 89.864 174.132 89.64C173.86 89.368 173.724 89.08 173.724 88.776C172.732 89.576 171.548 89.976 170.172 89.976C168.476 89.976 167.044 89.416 165.876 88.296C164.692 87.16 164.1 85.752 164.1 84.072C164.1 82.392 164.692 80.96 165.876 79.776C167.06 78.592 168.492 78 170.172 78C171.852 78 173.26 78.592 174.396 79.776C175.516 80.944 176.076 82.376 176.076 84.072V88.776ZM167.556 86.592C168.244 87.28 169.116 87.624 170.172 87.624C171.18 87.624 172.028 87.28 172.716 86.592C173.388 85.92 173.724 85.08 173.724 84.072C173.724 83.048 173.388 82.176 172.716 81.456C172.028 80.72 171.18 80.352 170.172 80.352C169.164 80.352 168.292 80.72 167.556 81.456C166.82 82.192 166.452 83.064 166.452 84.072C166.452 85.064 166.82 85.904 167.556 86.592ZM194.359 88.848C194.359 89.184 194.239 89.464 193.999 89.688C193.759 89.928 193.479 90.048 193.159 90.048C192.839 90.048 192.559 89.928 192.319 89.688C192.095 89.464 191.983 89.184 191.983 88.848V82.8C191.983 82.128 191.743 81.552 191.263 81.072C190.751 80.608 190.175 80.376 189.535 80.376C188.895 80.376 188.319 80.608 187.807 81.072C187.327 81.552 187.087 82.128 187.087 82.8V88.848C187.087 89.184 186.975 89.464 186.751 89.688C186.511 89.928 186.231 90.048 185.911 90.048C185.591 90.048 185.311 89.928 185.071 89.688C184.831 89.464 184.711 89.184 184.711 88.848V82.8C184.711 82.16 184.479 81.584 184.015 81.072C183.503 80.608 182.927 80.376 182.287 80.376C181.647 80.376 181.071 80.608 180.559 81.072C180.079 81.552 179.839 82.128 179.839 82.8V88.848C179.839 89.184 179.727 89.464 179.503 89.688C179.263 89.928 178.983 90.048 178.663 90.048C178.327 90.048 178.047 89.928 177.823 89.688C177.583 89.464 177.463 89.184 177.463 88.848V82.8C177.463 81.488 177.935 80.36 178.879 79.416C179.823 78.472 180.959 78 182.287 78C183.775 78 184.983 78.552 185.911 79.656C186.855 78.552 188.063 78 189.535 78C190.863 78 191.999 78.472 192.943 79.416C193.887 80.36 194.359 81.488 194.359 82.8C194.359 82.848 194.351 82.88 194.335 82.896C194.351 82.912 194.359 82.952 194.359 83.016V88.848ZM197.782 85.152C198.038 85.888 198.478 86.48 199.102 86.928C199.758 87.392 200.47 87.624 201.238 87.624C201.542 87.624 201.702 87.616 201.718 87.6L201.91 87.576L202.102 87.552L202.246 87.528L202.366 87.504C202.862 87.392 203.382 87.168 203.926 86.832C204.198 86.656 204.494 86.632 204.814 86.76C205.15 86.888 205.382 87.096 205.51 87.384C205.798 87.976 205.606 88.504 204.934 88.968C204.134 89.432 203.43 89.736 202.822 89.88L202.654 89.904L202.462 89.928L202.222 89.952L201.958 89.976L201.598 90H201.238C199.574 90 198.15 89.408 196.966 88.224C195.798 87.056 195.214 85.64 195.214 83.976C195.214 82.296 195.798 80.872 196.966 79.704C198.134 78.536 199.558 77.952 201.238 77.952C202.854 77.952 204.222 78.464 205.342 79.488C206.622 80.64 207.262 82.136 207.262 83.976C207.262 84.264 207.15 84.544 206.926 84.816C206.654 85.04 206.366 85.152 206.062 85.152H197.782ZM204.718 82.776C204.478 81.976 204.014 81.36 203.326 80.928C202.734 80.528 202.038 80.328 201.238 80.328C200.47 80.328 199.758 80.56 199.102 81.024C198.478 81.472 198.038 82.056 197.782 82.776H204.718ZM210.351 94.848C210.351 95.136 210.239 95.416 210.015 95.688C209.743 95.912 209.463 96.024 209.175 96.024C208.839 96.024 208.559 95.912 208.335 95.688C208.095 95.448 207.975 95.168 207.975 94.848V84.072C207.975 82.424 208.567 81.008 209.751 79.824C210.935 78.64 212.351 78.048 213.999 78.048C215.663 78.048 217.087 78.64 218.271 79.824C219.439 80.992 220.023 82.408 220.023 84.072C220.023 85.752 219.439 87.176 218.271 88.344C217.103 89.512 215.679 90.096 213.999 90.096C212.655 90.096 211.439 89.688 210.351 88.872V94.848ZM210.351 84.096C210.351 85.088 210.711 85.944 211.431 86.664C212.135 87.368 212.991 87.72 213.999 87.72C215.007 87.72 215.871 87.36 216.591 86.64C217.295 85.936 217.647 85.08 217.647 84.072C217.647 83.112 217.295 82.256 216.591 81.504C215.871 80.784 215.007 80.424 213.999 80.424C212.991 80.424 212.135 80.776 211.431 81.48C210.711 82.2 210.351 83.064 210.351 84.072V84.096ZM231.081 88.824C231.081 89.16 230.961 89.44 230.721 89.664C230.481 89.904 230.201 90.024 229.881 90.024C229.561 90.024 229.281 89.904 229.041 89.664L228.897 89.472L228.777 89.304C228.041 89.784 227.185 90.024 226.209 90.024C224.881 90.024 223.745 89.552 222.801 88.608C221.873 87.68 221.393 86.544 221.361 85.2V79.152C221.361 78.864 221.473 78.584 221.697 78.312C221.969 78.088 222.249 77.976 222.537 77.976C222.841 77.976 223.129 78.088 223.401 78.312C223.625 78.584 223.737 78.864 223.737 79.152V85.152C223.737 85.84 223.977 86.424 224.457 86.904C224.937 87.4 225.521 87.648 226.209 87.648C226.897 87.648 227.489 87.4 227.985 86.904C228.417 86.472 228.657 85.944 228.705 85.32V79.152C228.705 78.832 228.825 78.552 229.065 78.312C229.289 78.088 229.569 77.976 229.905 77.976C230.193 77.976 230.473 78.088 230.745 78.312C230.969 78.584 231.081 78.864 231.081 79.152V88.824ZM242.428 88.752C242.428 89.088 242.308 89.368 242.068 89.592C241.828 89.832 241.548 89.952 241.228 89.952C240.908 89.952 240.628 89.832 240.388 89.592C240.164 89.368 240.052 89.088 240.052 88.752V85.104H235.036V88.752C235.036 89.088 234.916 89.368 234.676 89.592C234.436 89.832 234.156 89.952 233.836 89.952C233.516 89.952 233.236 89.832 232.996 89.592C232.772 89.368 232.66 89.088 232.66 88.752V79.08C232.66 78.792 232.772 78.512 232.996 78.24C233.268 78.016 233.548 77.904 233.836 77.904C234.124 77.904 234.404 78.016 234.676 78.24C234.916 78.48 235.036 78.76 235.036 79.08V82.728H240.052V79.08C240.052 78.792 240.164 78.512 240.388 78.24C240.66 78.016 240.94 77.904 241.228 77.904C241.516 77.904 241.796 78.016 242.068 78.24C242.308 78.48 242.428 78.76 242.428 79.08V88.752ZM255.74 88.776C255.74 89.128 255.628 89.416 255.404 89.64C255.18 89.864 254.892 89.976 254.54 89.976C254.316 89.976 254.068 89.864 253.796 89.64C253.524 89.368 253.388 89.08 253.388 88.776C252.396 89.576 251.212 89.976 249.836 89.976C248.14 89.976 246.708 89.416 245.54 88.296C244.356 87.16 243.764 85.752 243.764 84.072C243.764 82.392 244.356 80.96 245.54 79.776C246.724 78.592 248.156 78 249.836 78C251.516 78 252.924 78.592 254.06 79.776C255.18 80.944 255.74 82.376 255.74 84.072V88.776ZM247.22 86.592C247.908 87.28 248.78 87.624 249.836 87.624C250.844 87.624 251.692 87.28 252.38 86.592C253.052 85.92 253.388 85.08 253.388 84.072C253.388 83.048 253.052 82.176 252.38 81.456C251.692 80.72 250.844 80.352 249.836 80.352C248.828 80.352 247.956 80.72 247.22 81.456C246.484 82.192 246.116 83.064 246.116 84.072C246.116 85.064 246.484 85.904 247.22 86.592Z" fill="white"/>
</g>
<defs>
<clipPath id="clip0">
<rect width="916.358" height="111.513" fill="white" transform="translate(0.670898 0.486938)"/>
</clipPath>
</defs>
</svg>
