<svg width="115" height="129" viewBox="0 0 115 129" fill="none" xmlns="http://www.w3.org/2000/svg">
<path d="M49.9875 55.9904C49.4278 56.8314 45.7472 62.4921 47.7393 69.4286C49.3709 75.1082 54.2278 79.6632 60.0997 80.6271C67.4419 81.8273 72.7921 76.8187 74.7083 75.0326C76.0933 73.7379 81.8514 68.0016 81.4529 59.3547C81.045 50.5754 74.585 45.3778 72.4601 43.6767C65.2601 37.8932 57.1495 37.9971 54.4744 38.0822C52.1693 38.1483 43.0152 38.687 35.3789 45.9164C26.9552 53.883 26.4809 64.2026 26.3861 67.1889C26.0066 79.6065 33.1117 88.0172 35.3789 90.7011C42.503 99.1402 51.2112 101.994 54.4839 103.015C65.0135 106.303 73.7502 104.593 75.8371 104.13C78.5502 103.544 88.3493 101.266 96.071 92.9314C99.2299 89.5198 101.013 86.2028 102.816 82.8574C104.314 80.0696 106.876 75.2216 108.431 68.304C108.887 66.3006 110.092 60.3753 109.551 52.6261C109.342 49.5359 108.896 43.8279 106.183 36.9481C103.224 29.473 99.1066 24.5116 97.1904 22.3948C90.6355 15.1275 83.6252 11.9617 76.9565 8.95653C71.3312 6.41442 63.8752 3.05013 53.3551 2.23741C38.6516 1.09393 27.6382 5.67729 25.2572 6.71682C12.2897 12.3586 4.83361 21.3647 1.65576 25.7591" stroke="black" stroke-width="3" stroke-miterlimit="10"/>
<path d="M67.4135 71.1108C67.9637 70.6383 72.1091 66.9716 71.9099 61.0368C71.7582 56.4818 69.14 52.9096 66.2942 50.9629C63.1732 48.8271 60.0049 48.7704 57.3013 48.7232C54.1519 48.6665 47.5876 48.5531 42.6927 53.2026C36.0809 59.4776 37.8738 69.3436 38.1963 71.1203C39.5718 78.6993 44.4761 83.2165 46.0603 84.5585C51.5433 89.1986 57.51 89.8506 60.6689 90.153C63.4104 90.4176 70.5345 91.0981 77.5257 86.7982C85.2095 82.0731 87.6853 74.4373 88.7668 71.1203C90.9865 64.2783 90.294 58.5231 89.8861 55.4423C89.4308 51.9457 88.5486 45.8125 84.2703 39.7644C78.721 31.9396 70.9044 29.1139 66.2847 27.4507C55.8879 23.6989 47.0468 24.8897 44.9314 25.211C34.9805 26.7325 28.0841 31.4387 24.6976 34.1698C16.3213 40.9267 12.9538 48.9216 11.2083 53.2026C8.98858 58.6648 6.14275 68.3135 7.84076 80.0791C10.383 97.751 21.4438 108.392 24.6976 111.435C34.2785 120.384 44.4666 123.446 49.4279 124.873C60.8302 128.162 70.3163 127.519 74.1581 127.113C94.9327 124.911 108.688 112.767 113.497 108.08" stroke="black" stroke-width="3" stroke-miterlimit="10"/>
</svg>
