<svg width="185" height="199" viewBox="0 0 185 199" fill="none" xmlns="http://www.w3.org/2000/svg">
<path d="M184.051 1.41992H1.91797V197.985H184.051V1.41992Z" fill="#7857AE" stroke="black" stroke-width="2" stroke-miterlimit="10"/>
<path d="M108.495 166.792L102.934 135.893C102.934 135.883 102.925 135.883 102.925 135.883L73.0777 129.716C73.0594 129.716 73.0594 129.698 73.0777 129.688L102.971 124.155C102.98 124.155 102.98 124.146 102.98 124.146L108.394 95.2893C108.477 94.8731 109.054 94.8731 109.127 95.2893L114.34 124.269C114.34 124.278 114.349 124.278 114.349 124.278L144.196 130.445C144.214 130.445 144.214 130.464 144.196 130.473L114.303 136.006C114.294 136.006 114.294 136.016 114.294 136.016L108.522 166.792C108.513 166.801 108.495 166.801 108.495 166.792Z" fill="#F896BF" stroke="black" stroke-miterlimit="10"/>
<path d="M137.469 84.5748L133.47 62.2179C133.47 62.2179 133.47 62.2084 133.461 62.2084L111.964 57.7465C111.955 57.7465 111.955 57.7275 111.964 57.7275L133.488 53.7223C133.488 53.7223 133.498 53.7223 133.498 53.7128L137.395 32.8304C137.45 32.526 137.872 32.5355 137.918 32.8304L141.669 53.7984C141.669 53.7984 141.669 53.8079 141.678 53.8079L163.175 58.2697C163.184 58.2697 163.184 58.2888 163.175 58.2888L141.651 62.294C141.651 62.294 141.641 62.294 141.641 62.3036L137.487 84.5748C137.487 84.5844 137.469 84.5844 137.469 84.5748Z" fill="#A9D063" stroke="black" stroke-miterlimit="10"/>
<path d="M55.3373 101.578L48.4456 62.9523C48.4456 62.9428 48.4365 62.9429 48.4365 62.9429L11.4174 55.2328C11.3993 55.2328 11.3993 55.2044 11.4174 55.2044L48.4819 48.288C48.491 48.288 48.491 48.2786 48.491 48.2786L55.2102 12.2038C55.31 11.6841 56.0274 11.6841 56.1182 12.2132L62.5831 48.4297C62.5831 48.4392 62.5922 48.4392 62.5922 48.4392L81.1017 52.2943L99.6113 56.1493C99.6294 56.1493 99.6294 56.1776 99.6113 56.1776L62.5468 63.094C62.5377 63.094 62.5377 63.1035 62.5377 63.1035L55.3736 101.578C55.3645 101.597 55.3464 101.597 55.3373 101.578Z" fill="#B1DBF3" stroke="black" stroke-miterlimit="10"/>
<path d="M96.2385 95.9225L94.2517 84.5355L83.5052 82.2768C83.4963 82.2768 83.4963 82.2674 83.5052 82.2674L94.2693 80.2141L96.2297 69.5738C96.2562 69.4245 96.4681 69.4245 96.4946 69.5738L98.3578 80.2514L109.104 82.5101C109.113 82.5101 109.113 82.5195 109.104 82.5195L98.3401 84.5729L96.2474 95.9225H96.2385Z" fill="#FFBE00" stroke="black" stroke-width="0.75" stroke-miterlimit="10"/>
<path d="M85.3505 105.373L84.0217 97.6492L76.8584 96.1123V96.1025L84.0399 94.7125L85.3505 87.498C85.3687 87.3903 85.5053 87.3903 85.5235 87.498L86.7705 94.7418L93.9337 96.2787V96.2885L86.7523 97.6785L85.3505 105.373C85.3596 105.373 85.3505 105.373 85.3505 105.373Z" fill="#FB8335"/>
<path d="M85.3505 105.373L84.0217 97.6492L76.8584 96.1123V96.1025L84.0399 94.7125L85.3505 87.498C85.3687 87.3903 85.5053 87.3903 85.5235 87.498L86.7705 94.7418L93.9337 96.2787V96.2885L86.7523 97.6785L85.3505 105.373ZM85.3505 105.373C85.3596 105.373 85.3505 105.373 85.3505 105.373Z" stroke="black" stroke-width="0.75" stroke-miterlimit="10"/>
</svg>
