<svg width="999" height="85" viewBox="0 0 999 85" fill="none" xmlns="http://www.w3.org/2000/svg">
<path d="M159.346 1.10242H1.87646V43.6285H159.346V1.10242Z" fill="#5DAD3E" stroke="black" stroke-width="2" stroke-miterlimit="10"/>
<path d="M313.021 1.10242H158.397V43.6285H313.021V1.10242Z" fill="#56C5F0" stroke="black" stroke-width="2" stroke-miterlimit="10"/>
<path d="M470.49 1.10242H313.021V43.6285H470.49V1.10242Z" fill="#FF563F" stroke="black" stroke-width="2" stroke-miterlimit="10"/>
<path d="M627.011 1.10242H470.49V43.6285H627.011V1.10242Z" fill="#F29859" stroke="black" stroke-width="2" stroke-miterlimit="10"/>
<path d="M783.532 1.10242H627.011V43.6285H783.532V1.10242Z" fill="#FFC34A" stroke="black" stroke-width="2" stroke-miterlimit="10"/>
<path d="M939.105 1.10242H783.532V43.6285H939.105V1.10242Z" fill="#60C0E8" stroke="black" stroke-width="2" stroke-miterlimit="10"/>
<path d="M997.918 1.10242H939.104V43.6285H997.918V1.10242Z" fill="#5DAD3E" stroke="black" stroke-width="2" stroke-miterlimit="10"/>
<path d="M839.5 83.3194L997.918 83.3194L997.918 41.7382L839.5 41.7382L839.5 83.3194Z" fill="#FF593F" stroke="black" stroke-width="2" stroke-miterlimit="10"/>
<path d="M683.928 83.3194L839.5 83.3194L839.5 41.7382L683.928 41.7382L683.928 83.3194Z" fill="#A9D063" stroke="black" stroke-width="2" stroke-miterlimit="10"/>
<path d="M527.407 83.3194L683.928 83.3194L683.928 41.7382L527.407 41.7382L527.407 83.3194Z" fill="#B462A2" stroke="black" stroke-width="2" stroke-miterlimit="10"/>
<path d="M370.886 83.3194L527.407 83.3194L527.407 41.7382L370.886 41.7382L370.886 83.3194Z" fill="#467FC2" stroke="black" stroke-width="2" stroke-miterlimit="10"/>
<path d="M214.365 83.3194L370.886 83.3194L370.886 41.7382L214.365 41.7382L214.365 83.3194Z" fill="#765AA5" stroke="black" stroke-width="2" stroke-miterlimit="10"/>
<path d="M57.8444 83.3194L214.365 83.3194L214.365 41.7382L57.8444 41.7382L57.8444 83.3194Z" fill="#FFC54A" stroke="black" stroke-width="2" stroke-miterlimit="10"/>
<path d="M1.87659 83.3194L56.896 83.3194L56.896 41.7382L1.87659 41.7382L1.87659 83.3194Z" fill="#FF563F" stroke="black" stroke-width="2" stroke-miterlimit="10"/>
</svg>
