<svg width="193" height="172" viewBox="0 0 193 172" fill="none" xmlns="http://www.w3.org/2000/svg">
<g clip-path="url(#clip0)">
<path d="M192.926 0.914795H0.358398V171.964H192.926V0.914795Z" fill="#FF563F"/>
<path d="M59.5082 19.3237L63.0817 51.6907L88.8149 31.2971L68.1402 56.6805L100.953 60.2054L68.1402 63.7303L88.8149 89.1137L63.0817 68.7201L59.5082 101.087L55.9347 68.7201L30.2015 89.1137L50.8762 63.7303L18.063 60.2054L50.8762 56.6805L30.2015 31.2971L55.9347 51.6907L59.5082 19.3237Z" fill="#FFC54A" stroke="black" stroke-miterlimit="10"/>
<path d="M137.11 59.9601L140.684 92.3272L166.417 71.9336L145.742 97.3169L178.555 100.842L145.742 104.367L166.417 129.75L140.684 109.357L137.11 141.724L133.537 109.357L107.804 129.75L128.478 104.367L95.665 100.842L128.478 97.3169L107.804 71.9336L133.537 92.3272L137.11 59.9601Z" fill="#FFC54A" stroke="black" stroke-miterlimit="10"/>
<path d="M129.034 159.679C147.553 159.679 162.566 144.87 162.566 126.603C162.566 108.336 147.553 93.527 129.034 93.527C110.515 93.527 95.5024 108.336 95.5024 126.603C95.5024 144.87 110.515 159.679 129.034 159.679Z" fill="#5B3DA2" stroke="black" stroke-miterlimit="10"/>
<path d="M107.238 137.357C116.963 137.357 124.847 129.581 124.847 119.988C124.847 110.395 116.963 102.618 107.238 102.618C97.5132 102.618 89.6294 110.395 89.6294 119.988C89.6294 129.581 97.5132 137.357 107.238 137.357Z" fill="#FF563F" stroke="black" stroke-miterlimit="10"/>
<rect x="192.926" y="152.119" width="206.939" height="261.772" fill="#A9D063"/>
</g>
<rect x="1.3584" y="1.91479" width="190.568" height="169.049" stroke="black" stroke-width="2"/>
<defs>
<clipPath id="clip0">
</clipPath>
</defs>
</svg>
