<svg width="146" height="137" viewBox="0 0 146 137" fill="none" xmlns="http://www.w3.org/2000/svg">
<path d="M37.9797 126.674C52.911 126.674 65.0152 114.616 65.0152 99.7409C65.0152 84.8661 52.911 72.8077 37.9797 72.8077C23.0485 72.8077 10.9443 84.8661 10.9443 99.7409C10.9443 114.616 23.0485 126.674 37.9797 126.674Z" fill="#F22F1C" stroke="black" stroke-width="2" stroke-miterlimit="10"/>
<path d="M25.7649 89.8179C28.1189 90.7544 29.4736 92.9043 28.7915 94.6052C28.0997 96.3156 25.64 96.9367 23.2764 95.9907" stroke="black" stroke-width="2" stroke-miterlimit="10"/>
<path d="M39.4028 108.942C42.3264 108.104 45.2413 109.693 45.9065 112.506C46.5718 115.318 44.7423 118.276 41.8187 119.114" stroke="black" stroke-width="2" stroke-miterlimit="10"/>
<path d="M51.7349 99.0445C48.3936 99.8825 45.0624 98.2932 44.3021 95.4806C43.5418 92.6679 45.6326 89.7108 48.9738 88.8728" stroke="black" stroke-width="2" stroke-miterlimit="10"/>
<path d="M56.4779 128.012C41.5611 139.601 20.1265 136.842 8.59214 121.864C-2.94226 106.877 -0.196425 85.3416 14.7109 73.7528" stroke="black" stroke-width="2" stroke-miterlimit="10"/>
<path d="M14.7388 73.7527C22.509 67.7526 23.5591 66.9802 27.6733 63.4762C46.0298 47.8589 64.9018 34.2102 83.0388 18.9414" stroke="black" stroke-width="2" stroke-miterlimit="10"/>
<path d="M55.5293 128.564C80.2954 108.284 104.994 88.9485 129.521 69.0274" stroke="black" stroke-width="2" stroke-miterlimit="10"/>
<path d="M59.3237 56.7419L125.727 0.985535" stroke="black" stroke-width="2" stroke-miterlimit="10"/>
<path d="M61.2207 73.7524L97.2679 43.5116" stroke="black" stroke-width="2" stroke-miterlimit="10"/>
<path d="M69.7583 83.2031L93.4736 63.3576" stroke="black" stroke-width="2" stroke-miterlimit="10"/>
<path d="M79.2441 93.5982L144.698 38.7867" stroke="black" stroke-width="2" stroke-miterlimit="10"/>
</svg>
