<svg width="110" height="187" viewBox="0 0 110 187" fill="none" xmlns="http://www.w3.org/2000/svg">
<path d="M105.167 30.3313C105.167 24.5224 102.065 19.82 98.237 19.82C96.9006 19.82 95.6597 20.4245 94.5906 21.4285C94.9915 20.0966 95.2301 18.6316 95.2301 17.0641C95.2301 11.2552 92.1278 6.55275 88.3001 6.55275C85.3028 6.55275 82.7732 9.45211 81.8091 13.4989C80.6732 12.2592 79.2891 11.5113 77.7904 11.5113C76.4159 11.5113 75.1368 12.1363 74.0581 13.1915C74.1154 12.6383 74.1727 12.0851 74.1727 11.5113C74.1727 5.70245 71.0704 1 67.2426 1C64.6653 1 62.4412 3.1617 61.248 6.32739C60.2553 5.48731 59.1193 4.9648 57.8975 4.9648C54.0697 4.9648 50.9674 9.66724 50.9674 15.4761C50.9674 15.8654 51.0152 16.2343 51.0438 16.6133C50.1083 15.9064 49.0774 15.4761 47.9701 15.4761C47.7888 15.4761 47.617 15.5376 47.4356 15.5581C47.7792 14.3082 47.9701 12.9456 47.9701 11.5113C47.9701 5.70245 44.8678 1 41.0401 1C37.2123 1 34.11 5.70245 34.11 11.5113C34.11 11.6548 34.1386 11.7879 34.1386 11.9314C33.5468 11.6855 32.9454 11.5113 32.2963 11.5113C31.9145 11.5113 31.5518 11.5933 31.1891 11.6855C31.1891 11.624 31.1986 11.5728 31.1986 11.5113C31.1986 5.70245 28.0963 1 24.2685 1C20.4408 1 17.3385 5.70245 17.3385 11.5113C13.5107 11.5113 10.4084 16.2138 10.4084 22.0227C10.4084 22.6066 10.4561 23.1701 10.523 23.7336C7.18201 24.4917 4.61426 28.8151 4.61426 34.0912C4.61426 39.0908 6.91473 43.2503 9.99795 44.3157L6.56155 51.1798L50.9483 67.7254L88.2714 56.6916L101.492 47.3892L100.814 40.0538C103.382 38.4863 105.167 34.7264 105.167 30.3313Z" fill="#E8E462" stroke="#191919" stroke-width="2" stroke-miterlimit="10"/>
<path d="M20.2659 184.857C18.7956 184.857 17.5434 183.256 17.3063 181.042L1.95775 40.9116C1.81546 39.5855 2.05261 38.2389 2.63127 37.2086C3.20043 36.1783 4.03521 35.5969 4.92691 35.5969H105.043C105.926 35.5969 106.76 36.1885 107.339 37.2086C107.908 38.2389 108.155 39.5855 108.012 40.9116L92.6639 181.042C92.4173 183.256 91.1746 184.857 89.7043 184.857H20.2659Z" fill="#EFEFEF"/>
<path d="M105.034 36.7193C106.428 36.7193 107.491 38.6269 107.263 40.7283L91.9146 180.859C91.7343 182.511 90.7857 183.735 89.6853 183.735H20.266C19.1656 183.735 18.217 182.521 18.0367 180.859L2.6882 40.7283C2.46054 38.6269 3.52298 36.7193 4.91744 36.7193H105.034ZM105.034 34.465H4.91744C3.81705 34.465 2.77358 35.1994 2.05263 36.4847C1.34117 37.7599 1.03762 39.4532 1.21785 41.1057L16.5664 181.236C16.8699 184.001 18.4257 186 20.266 186H89.6853C91.5256 186 93.0813 184.001 93.3849 181.236L108.733 41.1057C108.914 39.4532 108.61 37.7701 107.899 36.4847C107.187 35.1994 106.144 34.465 105.034 34.465Z" fill="#191919"/>
<path d="M29.2779 183.725H18.809L2.7168 36.9291H17.7754L29.2779 183.725Z" fill="#FF563F"/>
<path d="M50.1477 183.725H39.2902L32.124 36.9291H47.7557L50.1477 183.725Z" fill="#FF563F"/>
<path d="M70.8737 183.725H60.582L62.84 36.9291H77.657L70.8737 183.725Z" fill="#FF563F"/>
<path d="M91.9111 183.725H81.4517L92.9447 36.9291H108.013L91.9111 183.725Z" fill="#FF563F"/>
<path d="M106.201 36.7193C106.988 36.7193 107.586 37.8007 107.463 38.984L91.7821 182.103C91.6777 183.042 91.1465 183.725 90.5204 183.725H19.4315C18.8054 183.725 18.2742 183.042 18.1699 182.103L2.48932 38.984C2.35652 37.8007 2.96363 36.7193 3.75098 36.7193H106.201ZM106.201 34.465H3.76046C2.94466 34.465 2.17628 35.0056 1.65455 35.9543C1.12333 36.903 0.905143 38.1373 1.03795 39.3614L16.7185 182.481C16.9462 184.521 18.0845 185.99 19.441 185.99H90.5299C91.8864 185.99 93.0343 184.511 93.2524 182.481L108.933 39.3614C109.066 38.1373 108.838 36.903 108.316 35.9543C107.785 35.0056 107.017 34.465 106.201 34.465Z" fill="#191919" stroke="black" stroke-miterlimit="10"/>
</svg>
