<svg width="127" height="129" viewBox="0 0 127 129" fill="none" xmlns="http://www.w3.org/2000/svg">
<path d="M54.1378 27.1613L52.0038 15.7744L40.4612 13.5157C40.4517 13.5157 40.4517 13.5063 40.4612 13.5063L52.0228 11.4529L54.1283 0.812656C54.1568 0.663319 54.3844 0.663319 54.4129 0.812656L56.4141 11.4903L67.9567 13.749C67.9662 13.749 67.9662 13.7583 67.9567 13.7583L56.3951 15.8117L54.1473 27.1613H54.1378Z" fill="#FFBE00" stroke="black" stroke-width="0.75" stroke-miterlimit="10"/>
<path d="M42.7777 36.6114L41.375 29.2944L33.814 27.8384V27.8292L41.3943 26.5123L42.7777 19.6775C42.7969 19.5755 42.9411 19.5755 42.9603 19.6775L44.2765 26.5401L51.8376 27.9961V28.0054L44.2573 29.3222L42.7777 36.6114C42.7873 36.6114 42.7777 36.6114 42.7777 36.6114Z" fill="#FB8335"/>
<path d="M42.7777 36.6114L41.375 29.2944L33.814 27.8384V27.8292L41.3943 26.5123L42.7777 19.6775C42.7969 19.5755 42.9411 19.5755 42.9603 19.6775L44.2765 26.5401L51.8376 27.9961V28.0054L44.2573 29.3222L42.7777 36.6114ZM42.7777 36.6114C42.7873 36.6114 42.7777 36.6114 42.7777 36.6114Z" stroke="black" stroke-width="0.75" stroke-miterlimit="10"/>
<path d="M5.35536 79.1374C7.97488 79.1374 10.0984 77.0218 10.0984 74.4122C10.0984 71.8026 7.97488 69.6871 5.35536 69.6871C2.73585 69.6871 0.612305 71.8026 0.612305 74.4122C0.612305 77.0218 2.73585 79.1374 5.35536 79.1374Z" fill="#765AA4" stroke="black" stroke-miterlimit="10"/>
<path d="M117.766 128.279C122.219 128.279 125.829 124.682 125.829 120.246C125.829 115.81 122.219 112.213 117.766 112.213C113.313 112.213 109.703 115.81 109.703 120.246C109.703 124.682 113.313 128.279 117.766 128.279Z" fill="#F4BD3E" stroke="black" stroke-miterlimit="10"/>
<path d="M18.636 76.3024C19.6838 76.3024 20.5332 75.4563 20.5332 74.4124C20.5332 73.3686 19.6838 72.5224 18.636 72.5224C17.5882 72.5224 16.7388 73.3686 16.7388 74.4124C16.7388 75.4563 17.5882 76.3024 18.636 76.3024Z" fill="#FF563F" stroke="black" stroke-width="0.5" stroke-miterlimit="10"/>
<path d="M16.2645 64.962C18.0981 64.962 19.5846 63.4811 19.5846 61.6544C19.5846 59.8277 18.0981 58.3468 16.2645 58.3468C14.4308 58.3468 12.9443 59.8277 12.9443 61.6544C12.9443 63.4811 14.4308 64.962 16.2645 64.962Z" fill="#B462A2" stroke="black" stroke-width="0.75" stroke-miterlimit="10"/>
</svg>
