<svg width="191" height="354" viewBox="0 0 191 354" fill="none" xmlns="http://www.w3.org/2000/svg">
<path d="M189.722 14.6453H0.94873V352.964H189.722V14.6453Z" fill="#FFFEFF" stroke="black" stroke-width="2" stroke-miterlimit="10"/>
<path d="M120.474 61.8967H36.9961V304.768H120.474V61.8967Z" fill="black"/>
<path d="M140.394 61.8967H120.474V304.768H140.394V61.8967Z" fill="#7659AD"/>
<path d="M64.0312 99.6978C67.4366 99.6978 70.1972 96.9476 70.1972 93.5551C70.1972 90.1626 67.4366 87.4125 64.0312 87.4125C60.6258 87.4125 57.8652 90.1626 57.8652 93.5551C57.8652 96.9476 60.6258 99.6978 64.0312 99.6978Z" fill="#1EC6A5"/>
<path d="M85.8491 139.389C91.3501 139.389 95.8095 134.946 95.8095 129.466C95.8095 123.986 91.3501 119.543 85.8491 119.543C80.3481 119.543 75.8887 123.986 75.8887 129.466C75.8887 134.946 80.3481 139.389 85.8491 139.389Z" fill="#F4BD3E"/>
<path d="M74.4658 269.802C77.8711 269.802 80.6317 267.052 80.6317 263.659C80.6317 260.267 77.8711 257.517 74.4658 257.517C71.0604 257.517 68.2998 260.267 68.2998 263.659C68.2998 267.052 71.0604 269.802 74.4658 269.802Z" fill="#F4BD3E"/>
<path d="M114.782 212.155C123.688 212.155 130.908 205.174 130.908 196.563C130.908 187.951 123.688 180.97 114.782 180.97C105.875 180.97 98.6553 187.951 98.6553 196.563C98.6553 205.174 105.875 212.155 114.782 212.155Z" fill="#B0DCF7"/>
<path d="M114.782 180.025C123.689 180.025 130.909 187.429 130.909 196.563C130.909 205.697 123.689 213.101 114.782 213.101" fill="#765AA4"/>
<path d="M114.782 180.025C123.689 180.025 130.909 187.429 130.909 196.563C130.909 205.697 123.689 213.101 114.782 213.101" stroke="black" stroke-width="2" stroke-miterlimit="10"/>
<path d="M114.782 180.97V212.155" stroke="black" stroke-width="2" stroke-miterlimit="10"/>
<path d="M87.2724 32.601C117.659 32.601 142.292 25.4083 142.292 16.5356C142.292 7.66302 117.659 0.470337 87.2724 0.470337C56.886 0.470337 32.2529 7.66302 32.2529 16.5356C32.2529 25.4083 56.886 32.601 87.2724 32.601Z" fill="black"/>
<path d="M65.4015 157.337L63.7814 148.802L55.0195 147.106V147.096L63.791 145.559L65.3919 137.583C65.4111 137.471 65.5837 137.471 65.6028 137.583L67.1271 145.587L75.889 147.283V147.292L67.1175 148.83L65.4015 157.337C65.4015 157.346 65.4015 157.346 65.4015 157.337Z" fill="#FFBE00"/>
<path d="M65.4015 157.337L63.7814 148.802L55.0195 147.106V147.096L63.791 145.559L65.3919 137.583C65.4111 137.471 65.5837 137.471 65.6028 137.583L67.1271 145.587L75.889 147.283V147.292L67.1175 148.83L65.4015 157.337ZM65.4015 157.337C65.4015 157.346 65.4015 157.346 65.4015 157.337Z" stroke="black" stroke-miterlimit="10"/>
<path d="M94.832 112.921L93.7978 107.64L88.2207 106.59L93.8074 105.64L94.8223 100.697C94.8417 100.624 94.948 100.624 94.9576 100.697L95.9242 105.649L101.501 106.699L95.9145 107.65L94.832 112.921C94.832 112.93 94.832 112.93 94.832 112.921Z" fill="#FFBE00"/>
<path d="M94.832 112.921L93.7978 107.64L88.2207 106.59L93.8074 105.64L94.8223 100.697C94.8417 100.624 94.948 100.624 94.9576 100.697L95.9242 105.649L101.501 106.699L95.9145 107.65L94.832 112.921ZM94.832 112.921C94.832 112.93 94.832 112.93 94.832 112.921Z" stroke="black" stroke-miterlimit="10"/>
</svg>
