<svg width="119" height="114" viewBox="0 0 119 114" fill="none" xmlns="http://www.w3.org/2000/svg">
<path d="M10.5372 112.842C5.68032 112.842 1.72461 108.902 1.72461 104.063V44.5925H117.427V104.063C117.427 108.902 113.471 112.842 108.614 112.842H10.5372Z" fill="#191919"/>
<path d="M116.697 45.3203V53.3719V90.8515V104.063C116.697 108.505 113.073 112.115 108.614 112.115H10.5372C6.07871 112.115 2.45501 108.505 2.45501 104.063V84.1986V53.3719V45.3203H10.5372H108.614H116.697ZM118.157 43.8555H108.614H10.5372H0.994141V53.3719V84.1986V104.063C0.994141 109.317 5.26291 113.57 10.5372 113.57H108.614C113.889 113.57 118.157 109.317 118.157 104.063V90.8515V53.3719V43.8555Z" fill="#191919"/>
<path d="M6.85689 46.7467C6.3731 46.7467 5.94622 46.4254 5.8229 45.9529L1.81975 31.3523C1.65849 30.7853 1.99999 30.1899 2.57864 30.0387L108.425 1.21554C108.52 1.18719 108.615 1.17773 108.71 1.17773C109.193 1.17773 109.62 1.49904 109.744 1.97155L113.747 16.5721C113.908 17.1392 113.566 17.7345 112.988 17.8857L7.14147 46.7184C7.04661 46.7373 6.95175 46.7467 6.85689 46.7467Z" fill="#EFEFEF"/>
<path d="M108.691 1.90553C108.814 1.90553 108.975 1.98113 109.023 2.16069L113.026 16.7613C113.054 16.8747 113.026 16.9692 112.988 17.0164C112.959 17.0731 112.893 17.1487 112.779 17.1771L6.95203 46.0097C6.92357 46.0192 6.89511 46.0192 6.85717 46.0192C6.73385 46.0192 6.57259 45.9436 6.52515 45.764L2.52201 31.1634C2.49356 31.05 2.52201 30.9555 2.55996 30.9083C2.58842 30.8516 2.65482 30.776 2.76865 30.7476L108.615 1.92443C108.634 1.91498 108.662 1.90553 108.691 1.90553ZM108.691 0.450195C108.529 0.450195 108.368 0.469097 108.216 0.516348L2.37024 29.3395C1.40265 29.6041 0.842972 30.5964 1.0991 31.5509L5.10224 46.1515C5.32042 46.9547 6.05085 47.4745 6.84768 47.4745C7.00894 47.4745 7.17021 47.4556 7.32198 47.4083L113.168 18.5852C114.136 18.3206 114.695 17.3283 114.439 16.3738L110.436 1.77323C110.218 0.979409 109.487 0.450195 108.691 0.450195Z" fill="#191919"/>
<path d="M117.427 44.5925H1.72461V57.6527H117.427V44.5925Z" fill="#EFEFEF"/>
<path d="M116.697 45.3203V56.9157H2.46449V45.3203H116.697ZM118.157 43.8555H0.994141V58.3805H118.157V43.8555Z" fill="#191919"/>
<path d="M1.72461 57.6434V44.5925H32.6017L15.4035 57.6434H1.72461Z" fill="#191919"/>
<path d="M30.4298 45.3202L15.157 56.9156H2.4645V45.3202H30.4298ZM34.765 43.8555H0.994141V58.371H15.7547L15.7072 58.3332L34.765 43.8555Z" fill="#191919"/>
<path d="M42.9512 57.6434L60.14 44.5925H81.2087L64.0104 57.6434H42.9512Z" fill="#191919"/>
<path d="M79.0368 45.3203L63.7641 56.9157H45.1145L60.3871 45.3203H79.0368ZM83.3719 43.8555H59.8843L40.7793 58.3805H64.3618L64.3143 58.3427L83.3719 43.8555Z" fill="#191919"/>
<path d="M91.5586 57.6434L108.747 44.5925H117.427V57.6434H91.5586Z" fill="#191919"/>
<path d="M116.697 45.3202V56.9156H93.7211L108.994 45.3202H116.697ZM118.158 43.8555H108.491L89.3765 58.371H118.158V43.8555Z" fill="#191919"/>
<path d="M38.1045 20.3626L57.5034 15.08L74.8629 28.2724L55.4734 33.5551L38.1045 20.3626Z" fill="#191919"/>
<path d="M57.3419 15.8831L73.2406 27.9605L55.6249 32.7612L39.7262 20.6838L57.3419 15.8831ZM57.6549 14.286L36.4819 20.0507L55.3119 34.3489L76.4849 28.5842L57.6549 14.286Z" fill="#191919"/>
<path d="M6.71461 46.7947C6.32568 46.7947 5.97469 46.5301 5.87034 46.1521L1.76285 31.1639C1.63953 30.7009 1.91463 30.2189 2.37945 30.096L17.8418 25.8812L35.2109 39.0738L6.96125 46.7663C6.87587 46.7852 6.7905 46.7947 6.71461 46.7947Z" fill="#191919"/>
<path d="M17.6804 26.6844L33.5792 38.7617L6.71441 46.0762C6.67646 46.0762 6.60057 46.0573 6.5816 45.9722L2.46461 30.9748C2.44564 30.9086 2.50256 30.8141 2.56896 30.8046L17.6804 26.6844ZM17.9934 25.0873L2.18003 29.3966C1.32628 29.6328 0.814027 30.5117 1.05118 31.3622L5.16817 46.3502C5.36738 47.059 6.01243 47.5315 6.71441 47.5315C6.8567 47.5315 6.99899 47.5126 7.14128 47.4748L36.8234 39.3949L17.9934 25.0873Z" fill="#191919"/>
<path d="M77.7749 9.56034L108.605 1.15909C108.681 1.14019 108.757 1.13074 108.833 1.13074C109.221 1.13074 109.572 1.39534 109.677 1.77335L113.794 16.7614C113.851 16.9882 113.822 17.2245 113.708 17.4229C113.595 17.6214 113.405 17.7726 113.177 17.8293L95.1346 22.7434L77.7749 9.56034Z" fill="#191919"/>
<path d="M108.833 1.85864C108.871 1.85864 108.947 1.87754 108.966 1.96259L113.083 16.9505C113.101 17.0166 113.045 17.1111 112.978 17.1206L95.2865 21.9401L79.3878 9.86287L108.785 1.85864C108.814 1.86809 108.823 1.85864 108.833 1.85864ZM108.833 0.40332C108.69 0.40332 108.548 0.42222 108.406 0.46002L76.1436 9.24862L94.9735 23.5466L113.367 18.5381C114.221 18.3018 114.733 17.423 114.496 16.5725L110.379 1.58458C110.189 0.875826 109.544 0.40332 108.833 0.40332Z" fill="#191919"/>
<path d="M1.58228 29.7931L20.0139 43.7888C20.2036 43.9306 20.2036 44.2235 20.0139 44.3653L1.58228 58.3799C1.34513 58.5594 0.994141 58.3893 0.994141 58.0869V30.086C0.994141 29.7836 1.34513 29.6135 1.58228 29.7931Z" fill="#191919"/>
<path d="M11.6282 58.6543H2.80615V67.443H11.6282V58.6543Z" fill="#D6D6D6"/>
<path d="M11.6282 76.2319H2.80615V85.0205H11.6282V76.2319Z" fill="#D6D6D6"/>
<path d="M20.4412 67.4434H11.6191V76.2322H20.4412V67.4434Z" fill="#D6D6D6"/>
<path d="M29.2632 58.6543H20.4414V67.443H29.2632V58.6543Z" fill="#D6D6D6"/>
<path d="M29.2632 76.2319H20.4414V85.0205H29.2632V76.2319Z" fill="#D6D6D6"/>
<path d="M38.0853 67.4434H29.2632V76.2322H38.0853V67.4434Z" fill="#D6D6D6"/>
<path d="M46.8976 58.6543H38.0757V67.443H46.8976V58.6543Z" fill="#D6D6D6"/>
<path d="M46.8976 76.2319H38.0757V85.0205H46.8976V76.2319Z" fill="#D6D6D6"/>
<path d="M55.7196 67.4434H46.8975V76.2322H55.7196V67.4434Z" fill="#D6D6D6"/>
<path d="M64.5416 58.6543H55.7197V67.443H64.5416V58.6543Z" fill="#D6D6D6"/>
<path d="M73.3641 67.4434H64.542V76.2322H73.3641V67.4434Z" fill="#D6D6D6"/>
<path d="M82.1765 58.6543H73.3545V67.443H82.1765V58.6543Z" fill="#D6D6D6"/>
<path d="M90.9987 67.4434H82.1768V76.2322H90.9987V67.4434Z" fill="#D6D6D6"/>
<path d="M99.8208 58.6543H90.9985V67.443H99.8208V58.6543Z" fill="#D6D6D6"/>
<path d="M108.643 67.4434H99.8208V76.2322H108.643V67.4434Z" fill="#D6D6D6"/>
<path d="M116.355 58.6543H108.633V67.443H116.355V58.6543Z" fill="#D6D6D6"/>
<path d="M11.6282 93.7998H2.80615V102.588H11.6282V93.7998Z" fill="#D6D6D6"/>
<path d="M29.2632 93.7998H20.4414V102.588H29.2632V93.7998Z" fill="#D6D6D6"/>
<path d="M46.8976 93.7998H38.0757V102.588H46.8976V93.7998Z" fill="#D6D6D6"/>
<path d="M64.5416 93.7998H55.7197V102.588H64.5416V93.7998Z" fill="#D6D6D6"/>
<path d="M82.1765 93.7998H73.3545V102.588H82.1765V93.7998Z" fill="#D6D6D6"/>
<path d="M99.8208 93.7998H90.9985V102.588H99.8208V93.7998Z" fill="#D6D6D6"/>
<path d="M117.456 93.7998H108.633V102.588H117.456V93.7998Z" fill="#D6D6D6"/>
<path d="M55.7196 85.0112H46.8975V93.7999H55.7196V85.0112Z" fill="#D6D6D6"/>
<path d="M73.3641 85.0112H64.542V93.7999H73.3641V85.0112Z" fill="#D6D6D6"/>
<path d="M90.9987 85.0112H82.1768V93.7999H90.9987V85.0112Z" fill="#D6D6D6"/>
<path d="M108.643 85.0112H99.8208V93.7999H108.643V85.0112Z" fill="#D6D6D6"/>
<path d="M64.5416 76.2319H55.7197V85.0205H64.5416V76.2319Z" fill="#D6D6D6"/>
<path d="M82.1765 76.2319H73.3545V85.0205H82.1765V76.2319Z" fill="#D6D6D6"/>
<path d="M99.8208 76.2319H90.9985V85.0205H99.8208V76.2319Z" fill="#D6D6D6"/>
<path d="M117.456 76.2319H108.633V85.0205H117.456V76.2319Z" fill="#D6D6D6"/>
<path d="M38.0853 85.0112H29.2632V93.7999H38.0853V85.0112Z" fill="#D6D6D6"/>
<path d="M20.4412 85.0112H11.6191V93.7999H20.4412V85.0112Z" fill="#D6D6D6"/>
</svg>
