<svg width="188" height="199" viewBox="0 0 188 199" fill="none" xmlns="http://www.w3.org/2000/svg">
<path d="M186.827 1H0.989258V197.565H186.827V1Z" fill="#B361A1" stroke="black" stroke-width="2"/>
<path d="M90.4097 42.1084C90.7005 38.2898 96.2995 38.2898 96.5903 42.1084L97.4623 53.5598C97.7086 56.7941 102.129 57.5248 103.403 54.5418L107.909 43.9921C109.413 40.4708 114.713 42.2714 113.761 45.9801L110.879 57.2052C110.073 60.3438 114.016 62.4578 116.184 60.0495L123.915 51.4612C126.476 48.6166 130.908 52.0303 128.812 55.2324L122.38 65.0553C120.608 67.7619 123.647 71.0324 126.476 69.4633L136.708 63.7885C140.053 61.9331 143.133 66.5986 140.113 68.946L130.736 76.2333C128.186 78.2155 129.99 82.2894 133.172 81.7334L144.839 79.6945C148.606 79.0363 149.991 84.4494 146.371 85.6815L135.072 89.5272C132.017 90.5672 132.388 95.0024 135.573 95.5203L147.347 97.4344C151.121 98.048 150.655 103.615 146.832 103.593L134.935 103.522C131.706 103.503 130.604 107.817 133.445 109.349L143.934 115.006C147.301 116.822 145.036 121.931 141.43 120.656L130.328 116.73C127.28 115.653 124.825 119.376 127.015 121.753L135.022 130.44C137.615 133.254 133.806 137.349 130.812 134.965L121.719 127.725C119.186 125.708 115.647 128.438 116.953 131.4L121.659 142.072C123.203 145.575 118.27 148.217 116.21 144.99L110.022 135.293C108.278 132.56 104.038 134.002 104.322 137.232L105.331 148.715C105.666 152.53 100.142 153.442 99.2326 149.722L96.5107 138.584C95.7405 135.433 91.2595 135.433 90.4893 138.584L87.7674 149.722C86.8583 153.442 81.3343 152.53 81.6694 148.715L82.6779 137.232C82.9616 134.002 78.7222 132.56 76.9779 135.293L70.7899 144.99C68.7305 148.217 63.7969 145.575 65.3415 142.072L70.047 131.4C71.3533 128.438 67.8137 125.708 65.2806 127.725L56.1876 134.965C53.1942 137.349 49.385 133.254 51.978 130.44L59.9846 121.753C62.1753 119.376 59.72 115.653 56.6723 116.73L45.57 120.656C41.9644 121.931 39.6995 116.822 43.0656 115.006L53.5546 109.349C56.3963 107.817 55.2936 103.503 52.0651 103.522L40.1684 103.593C36.345 103.615 35.8788 98.048 39.6527 97.4344L51.4266 95.5203C54.6125 95.0024 54.9835 90.5672 51.9279 89.5272L40.6289 85.6815C37.009 84.4494 38.3943 79.0362 42.161 79.6945L53.8284 81.7334C57.0104 82.2894 58.8143 78.2155 56.2637 76.2332L46.8872 68.946C43.8668 66.5986 46.9471 61.9331 50.2923 63.7885L60.5236 69.4633C63.3527 71.0324 66.3919 67.762 64.6198 65.0553L58.1885 55.2324C56.092 52.0304 60.5243 48.6166 63.0849 51.4612L70.8157 60.0495C72.9837 62.4578 76.9269 60.3438 76.1211 57.2052L73.2392 45.9801C72.2871 42.2714 77.5874 40.4708 79.0914 43.9921L83.5971 54.5418C84.8712 57.5248 89.2914 56.7941 89.5377 53.5598L90.4097 42.1084Z" fill="#FFC54A" stroke="black"/>
</svg>
