<svg width="89" height="201" viewBox="0 0 89 201" fill="none" xmlns="http://www.w3.org/2000/svg">
<path d="M58.132 1.41518L31.3882 84.9046L34.7859 86.2061L61.5297 2.71666L58.132 1.41518Z" fill="#342CDB"/>
<path d="M58.743 2.85356L60.2096 3.41598L34.1429 84.7843L32.6762 84.2219L58.743 2.85356ZM57.4953 0L30.0762 85.5862L35.4 87.6275L62.8192 2.04126L57.4953 0Z" fill="#191919"/>
<path d="M16.8855 199.885C16.4379 199.885 16.0665 199.51 16.0379 199.02L7.59979 58.2787C7.58074 58.0183 7.66645 57.7788 7.82836 57.5809C7.99026 57.3934 8.20931 57.2893 8.44741 57.2893H80.5808C80.8189 57.2893 81.0379 57.3934 81.1998 57.5809C81.3617 57.7683 81.4474 58.0183 81.4284 58.2787L72.9903 199.02C72.9617 199.51 72.5903 199.885 72.1427 199.885H16.8855Z" fill="#4D2CDB"/>
<path d="M80.3903 58.4148L71.9713 198.771H17.0475L8.62841 58.4148H80.3903ZM80.5713 56.1757H8.44746C7.37127 56.1757 6.51412 57.1755 6.58079 58.3523L15.0189 199.094C15.0856 200.167 15.8951 201 16.8855 201H72.1332C73.1141 201 73.9331 200.167 73.9998 199.094L82.4379 58.3523C82.5046 57.1755 81.657 56.1757 80.5713 56.1757Z" fill="#191919"/>
<path d="M24.1333 50.9786L25.0476 47.8332H63.9717L64.886 50.9786H24.1333Z" fill="#EFEFEF"/>
<path d="M63.219 48.9483L63.4857 49.8544H25.5334L25.8001 48.9483H63.219ZM64.7143 46.7196H24.3048L22.7334 52.0935H66.2762L64.7143 46.7196Z" fill="#191919"/>
<path d="M1.40918 59.8727L3.96156 51.1141H85.0568L87.6092 59.8727H1.40918Z" fill="#EFEFEF"/>
<path d="M84.3143 52.2287L86.219 58.7483H2.8L4.70476 52.2287H84.3143ZM85.8 50H3.20953L0 60.9874H89L85.8 50Z" fill="#191919"/>
</svg>
