<svg width="142" height="45" viewBox="0 0 142 45" fill="none" xmlns="http://www.w3.org/2000/svg">
<path d="M92.3555 26.3345C91.4078 24.35 90.2158 22.6773 88.7208 21.2314C82.6923 17.3285 75.9799 15.4007 68.6421 15.4007C64.0498 15.4007 59.3697 16.1567 54.7286 17.6593C50.9083 19.4926 48.5535 22.1765 47.0684 26.3345H2.53356C1.63466 26.3345 0.901855 25.6258 0.901855 24.7564V2.63349C0.901855 1.76407 1.63466 1.0553 2.53356 1.0553H138.903C139.802 1.0553 140.535 1.76407 140.535 2.63349V24.7658C140.535 25.6352 139.802 26.344 138.903 26.344L92.3555 26.3345Z" fill="#303030"/>
<path d="M138.903 1.90545C139.323 1.90545 139.655 2.23623 139.655 2.63314V24.7657C139.655 25.1721 139.313 25.4934 138.903 25.4934H92.9027C91.9451 23.6317 90.7727 22.0346 89.3364 20.6454L89.2191 20.532L89.0726 20.4375C83.0343 16.544 76.1557 14.5689 68.642 14.5689C63.9619 14.5689 59.184 15.3438 54.4452 16.8653L54.328 16.9031L54.2205 16.9598C49.5696 19.209 47.5373 22.6961 46.4528 25.5028H2.54329C2.12315 25.5028 1.79095 25.1721 1.79095 24.7752V2.63314C1.79095 2.22678 2.13292 1.90545 2.54329 1.90545H138.903ZM138.903 0.213867H2.54329C1.16562 0.213867 0.0419922 1.2912 0.0419922 2.63314V24.7657C0.0419922 26.0982 1.15585 27.185 2.54329 27.185H47.6937C48.8662 23.6317 50.8008 20.5036 55.0021 18.4718C59.3306 17.0732 63.9619 16.2605 68.642 16.2605C75.2666 16.2605 81.9888 17.8954 88.1053 21.8456C89.7663 23.4521 90.929 25.2666 91.7888 27.1945H138.903C140.281 27.1945 141.404 26.1171 141.404 24.7752V2.63314C141.404 1.30065 140.281 0.213867 138.903 0.213867Z" fill="#191919"/>
<path d="M61.4898 4.73181H9.54883V38.7146H61.4898V4.73181Z" fill="#44668E"/>
<path d="M131.135 4.73181H79.1943V38.7146H131.135V4.73181Z" fill="#A52929"/>
<path d="M82.8488 43.5907C81.4613 43.5907 80.1618 42.5795 79.5463 41.0202C74.3385 27.7143 71.6125 27.7144 70.7234 27.7144C69.8342 27.7144 67.1082 27.7143 61.9004 41.0202C61.2849 42.5795 59.9951 43.5907 58.5979 43.5907H18.4013C12.2848 43.5907 7.30176 37.5898 7.30176 30.2092V7.5854C7.30176 3.98487 9.69558 1.0553 12.6366 1.0553H128.8C131.741 1.0553 134.135 3.98487 134.135 7.5854V30.2092C134.135 37.5898 129.152 43.5907 123.036 43.5907H82.8488ZM87.0795 6.24348C83.8649 6.24348 81.2562 8.77613 81.2562 11.8758V31.8535C81.2562 34.9626 83.8747 37.4859 87.0795 37.4859H123.251C126.465 37.4859 129.074 34.9532 129.074 31.8535V11.8758C129.074 8.76668 126.455 6.24348 123.251 6.24348H87.0795ZM18.1961 6.24348C14.9815 6.24348 12.3728 8.77613 12.3728 11.8758V31.8535C12.3728 34.9626 14.9913 37.4859 18.1961 37.4859H54.3672C57.5818 37.4859 60.1905 34.9532 60.1905 31.8535V11.8758C60.1905 8.76668 57.572 6.24348 54.3672 6.24348H18.1961Z" fill="#5B5B5B"/>
<path d="M128.81 1.90544C131.272 1.90544 133.275 4.45702 133.275 7.5945V9.04985V16.0147V30.2184C133.275 37.1265 128.683 42.7588 123.045 42.7588H82.8487C81.8228 42.7588 80.8457 41.965 80.367 40.727C74.954 26.873 71.9935 26.873 70.7233 26.873C69.4629 26.873 66.5024 26.873 61.0796 40.727C60.6009 41.9556 59.6238 42.7588 58.5979 42.7588H18.4012C12.7635 42.7588 8.17132 37.136 8.17132 30.2184V16.0147V9.04985V7.5945C8.17132 4.45702 10.1743 1.90544 12.6365 1.90544H13.8676H127.579H128.81ZM87.0794 38.3361H123.251C126.944 38.3361 129.953 35.4349 129.953 31.8533V11.8755C129.953 8.30327 126.954 5.39258 123.251 5.39258H87.0794C83.3861 5.39258 80.3767 8.29382 80.3767 11.8755V31.8533C80.3767 35.4349 83.3861 38.3361 87.0794 38.3361ZM18.196 38.3361H54.3672C58.0605 38.3361 61.0699 35.4349 61.0699 31.8533V11.8755C61.0699 8.30327 58.0702 5.39258 54.3672 5.39258H18.196C14.5027 5.39258 11.4933 8.29382 11.4933 11.8755V31.8533C11.5031 35.4349 14.5027 38.3361 18.196 38.3361ZM128.81 0.213867H127.579H13.8676H12.6365C9.20701 0.213867 6.43213 3.51199 6.43213 7.58504V9.04039V16.0052V30.2089C6.43213 38.0621 11.7962 44.4315 18.4012 44.4315H58.5979C60.3664 44.4315 61.9688 43.2219 62.7113 41.313C64.5189 36.6918 68.0754 28.5551 70.7233 28.5551C73.3712 28.5551 76.9277 36.6918 78.7353 41.313C79.4778 43.2219 81.0802 44.4315 82.8487 44.4315H123.045C129.66 44.4315 135.014 38.0621 135.014 30.2089V16.0052V9.04039V7.58504C135.014 3.52144 132.23 0.213867 128.81 0.213867ZM87.0794 36.654C84.3437 36.654 82.1257 34.5088 82.1257 31.8627V11.8849C82.1257 9.23885 84.3437 7.09364 87.0794 7.09364H123.251C125.986 7.09364 128.204 9.23885 128.204 11.8849V31.8627C128.204 34.5088 125.986 36.654 123.251 36.654H87.0794ZM18.196 36.654C15.4603 36.654 13.2423 34.5088 13.2423 31.8627V11.8849C13.2423 9.23885 15.4603 7.09364 18.196 7.09364H54.3672C57.103 7.09364 59.3209 9.23885 59.3209 11.8849V31.8627C59.3209 34.5088 57.103 36.654 54.3672 36.654H18.196Z" fill="#191919"/>
</svg>
