<svg width="163" height="139" viewBox="0 0 163 139" fill="none" xmlns="http://www.w3.org/2000/svg">
<path d="M15.8091 44.9378L13.6748 33.4085L2.13016 31.1215C2.12068 31.1215 2.12068 31.1121 2.13016 31.1121L13.6937 29.033L15.7996 18.2598C15.8281 18.1086 16.0558 18.1086 16.0842 18.2598L18.0858 29.0708L29.6304 31.3578C29.6399 31.3578 29.6399 31.3672 29.6304 31.3672L18.0668 33.4463L15.8186 44.9378H15.8091Z" fill="#765AA4" stroke="black" stroke-width="0.75" stroke-miterlimit="10"/>
<path d="M7.84081 55.531L6.96809 50.8437L2.27246 49.9176L6.96809 49.0765L7.82184 44.701C7.83132 44.6349 7.92618 44.6349 7.93567 44.701L8.75148 49.0954L13.4471 50.0215L8.75148 50.8626L7.84081 55.531Z" fill="#B560A1" stroke="black" stroke-width="0.75" stroke-miterlimit="10"/>
<path d="M129.7 18.2222L128.315 10.766L120.849 9.2823V9.27285L128.334 7.93091L129.7 0.966087C129.719 0.862134 129.861 0.862134 129.88 0.966087L131.179 7.95926L138.645 9.44295V9.4524L131.161 10.7943L129.7 18.2222C129.709 18.2222 129.7 18.2222 129.7 18.2222Z" fill="#FB8335"/>
<path d="M129.7 18.2222L128.315 10.766L120.849 9.2823V9.27285L128.334 7.93091L129.7 0.966087C129.719 0.862134 129.861 0.862134 129.88 0.966087L131.179 7.95926L138.645 9.44295V9.4524L131.161 10.7943L129.7 18.2222ZM129.7 18.2222C129.709 18.2222 129.7 18.2222 129.7 18.2222Z" stroke="black" stroke-width="0.75" stroke-miterlimit="10"/>
<path d="M153.415 138.24L152.03 130.784L144.564 129.3V129.29L152.049 127.949L153.415 120.984C153.434 120.88 153.576 120.88 153.595 120.984L154.895 127.977L162.36 129.461V129.47L154.876 130.812L153.415 138.24C153.424 138.24 153.415 138.24 153.415 138.24Z" fill="#FB8335"/>
<path d="M153.415 138.24L152.03 130.784L144.564 129.3V129.29L152.049 127.949L153.415 120.984C153.434 120.88 153.576 120.88 153.595 120.984L154.895 127.977L162.36 129.461V129.47L154.876 130.812L153.415 138.24ZM153.415 138.24C153.424 138.24 153.415 138.24 153.415 138.24Z" stroke="black" stroke-width="0.75" stroke-miterlimit="10"/>
</svg>
