<svg width="159" height="80" viewBox="0 0 159 80" fill="none" xmlns="http://www.w3.org/2000/svg">
<path d="M157.408 30.1222C158.508 29.7822 158.508 28.9322 157.408 28.5922L152.247 26.9922V24.5622L157.408 22.9622C158.508 22.6222 158.508 21.7722 157.408 21.4322L152.197 19.8122C152.117 19.4792 151.93 19.1816 151.664 18.965C151.399 18.7483 151.07 18.6244 150.727 18.6122C149.923 18.5656 149.121 18.4721 148.327 18.3322C139.457 16.8422 132.647 10.3322 131.927 2.40217C131.873 2.00113 131.67 1.63503 131.359 1.37593C131.048 1.11682 130.652 0.983491 130.247 1.00217H28.9475C28.5517 0.98134 28.1626 1.11099 27.8585 1.3651C27.5543 1.61921 27.3574 1.97897 27.3075 2.37217C27.3075 2.82217 27.2075 3.27217 27.1275 3.71217C25.6975 11.7122 18.0575 17.9622 8.5975 18.6022C8.24265 18.6065 7.89877 18.7258 7.61748 18.9421C7.3362 19.1585 7.13269 19.4603 7.0375 19.8022L1.8175 21.4222C0.7275 21.7622 0.7275 22.6122 1.8175 22.9522L6.9775 24.5622V26.9822L1.8175 28.5822C0.7275 28.9222 0.7275 29.7722 1.8175 30.1122L6.9775 31.7122V34.1422L1.8175 35.7422C0.7275 36.0822 0.7275 36.9322 1.8175 37.2722L6.9775 38.8722V41.3022L1.8175 42.9022C0.7275 43.2422 0.7275 44.0922 1.8175 44.4322L6.9775 46.0322V48.5022L1.8175 50.1022C0.7275 50.4422 0.7275 51.2922 1.8175 51.6322L6.9775 53.2322V55.6622L1.8175 57.2622C0.7275 57.6022 0.7275 58.4522 1.8175 58.7922L7.0375 60.4122C7.12349 60.737 7.31204 61.0253 7.5751 61.2343C7.83817 61.4433 8.16168 61.5618 8.4975 61.5722C9.2775 61.5722 10.0475 61.7122 10.7975 61.8322C19.7075 63.2922 26.5675 69.8322 27.2875 77.8322C27.3442 78.2323 27.5475 78.597 27.8579 78.8557C28.1683 79.1144 28.5637 79.2486 28.9675 79.2322H130.247C130.638 79.2579 131.025 79.1384 131.333 78.8966C131.641 78.6549 131.849 78.3079 131.917 77.9222C131.985 77.1648 132.106 76.413 132.277 75.6722C134.077 68.0722 141.507 62.2422 150.637 61.6722C150.991 61.6657 151.332 61.5454 151.612 61.3292C151.891 61.113 152.093 60.8124 152.188 60.4722L157.408 58.8522C158.508 58.5122 158.508 57.6622 157.408 57.3122L152.247 55.7122V53.2022L157.408 51.6022C158.508 51.2622 158.508 50.4122 157.408 50.0622L152.247 48.5022V46.0422L157.408 44.4422C158.508 44.1022 158.508 43.2522 157.408 42.9122L152.247 41.3022V38.8822L157.408 37.2822C158.508 36.9422 158.508 36.0922 157.408 35.7522L152.247 34.1422V31.7222L157.408 30.1222Z" fill="#ED7F4F" stroke="#191919" stroke-miterlimit="10"/>
<path d="M113.277 68.7922H45.9574C44.0073 68.7922 42.0763 68.4081 40.2746 67.6618C38.4729 66.9155 36.8358 65.8217 35.4569 64.4427C34.0779 63.0638 32.9841 61.4267 32.2378 59.625C31.4915 57.8233 31.1074 55.8923 31.1074 53.9422V22.8822C31.1074 18.9437 32.672 15.1665 35.4569 12.3816C38.2418 9.59671 42.019 8.03217 45.9574 8.03217H113.277C117.216 8.03217 120.993 9.59671 123.778 12.3816C126.563 15.1665 128.127 18.9437 128.127 22.8822V53.9422C128.127 55.8923 127.743 57.8233 126.997 59.625C126.251 61.4267 125.157 63.0638 123.778 64.4427C122.399 65.8217 120.762 66.9155 118.96 67.6618C117.159 68.4081 115.228 68.7922 113.277 68.7922Z" fill="#ED7F4F" stroke="#C94D17" stroke-miterlimit="10"/>
<path d="M55.4685 40.4596C55.4685 42.4749 54.8273 44.1329 53.5448 45.4336C52.2624 46.7344 50.6685 47.3847 48.7632 47.3847C46.748 47.3847 45.1725 46.6794 44.0366 45.2687C42.9099 43.8489 42.3465 41.8428 42.3465 39.2505C42.3465 37.8398 42.4839 36.5162 42.7587 35.2796C43.0427 34.0338 43.487 32.9254 44.0916 31.9544C44.7053 30.9743 45.4931 30.1499 46.4549 29.4812C47.4167 28.8125 48.5846 28.3362 49.9586 28.0522C50.8105 27.8782 51.5021 27.7316 52.0334 27.6125C52.5739 27.4934 53.0135 27.3698 53.3525 27.2415C53.6914 27.1133 53.9662 26.9622 54.1769 26.7881C54.3876 26.6141 54.6028 26.3942 54.8227 26.1286L55.3448 26.4171C55.0425 27.1316 54.7723 27.7225 54.5341 28.1896C54.3051 28.6568 54.1402 28.9682 54.0395 29.124C53.8288 29.4171 53.6593 29.6049 53.5311 29.6873C53.4029 29.7697 53.2654 29.843 53.1189 29.9071C52.9815 29.9713 52.7891 30.04 52.5418 30.1133C52.3036 30.1774 51.9968 30.2507 51.6212 30.3331C51.2548 30.4155 50.7968 30.5071 50.2472 30.6079C49.6792 30.7178 49.1296 30.8323 48.5983 30.9514C48.0671 31.0613 47.5678 31.2216 47.1007 31.4323C46.6427 31.6338 46.2167 31.8949 45.8228 32.2155C45.4381 32.5361 45.0992 32.9575 44.806 33.4796C44.5129 34.0017 44.2702 34.6384 44.0778 35.3895C43.8946 36.1315 43.7755 37.0246 43.7206 38.0688L43.8992 38.0963C44.229 36.878 44.8839 35.9071 45.864 35.1834C46.8442 34.4597 48.0029 34.0979 49.3403 34.0979C51.154 34.0979 52.6288 34.6933 53.7647 35.8842C54.9005 37.0658 55.4685 38.591 55.4685 40.4596ZM45.2183 40.5833C45.2183 42.3787 45.5434 43.7894 46.1938 44.8153C46.8442 45.8412 47.7877 46.3542 49.0243 46.3542C51.4517 46.3542 52.6655 44.4855 52.6655 40.7482C52.6655 38.9986 52.3357 37.6246 51.6762 36.6261C51.0258 35.6277 50.0869 35.1284 48.8594 35.1284C47.6503 35.1284 46.7388 35.5727 46.1251 36.4612C45.5205 37.3498 45.2183 38.7238 45.2183 40.5833ZM61.8852 45.5985C61.8852 45.8458 62.0042 46.0061 62.2424 46.0794L63.6302 46.4779L63.6576 47.0412C62.5401 47.0137 61.5462 47 60.676 47C59.7692 47 58.702 47.0137 57.4745 47.0412L57.4058 46.4779L58.9997 46.0107C59.2104 45.9374 59.3249 45.7954 59.3432 45.5848C59.3615 45.2275 59.3707 44.6275 59.3707 43.7848V38.0551C59.3707 36.9559 59.3615 36.1956 59.3432 35.7742C59.3249 35.5269 59.2104 35.3666 58.9997 35.2933L57.4058 34.8262L57.3784 34.2628C58.6425 34.2903 59.7234 34.304 60.6211 34.304C61.5004 34.304 62.4851 34.2903 63.5752 34.2628L63.6302 34.8262L62.2561 35.2246C62.0455 35.2979 61.931 35.4399 61.9126 35.6506C61.8943 36.0078 61.8852 36.6078 61.8852 37.4505V42.8779L68.2881 36.3788V35.7055C68.2881 35.4582 68.1736 35.2979 67.9446 35.2246L66.5568 34.8262L66.5294 34.2628C67.6469 34.2903 68.6408 34.304 69.511 34.304C70.4178 34.304 71.485 34.2903 72.7125 34.2628L72.7812 34.8262L71.1873 35.2933C70.9766 35.3666 70.8621 35.5086 70.8438 35.7193C70.8255 36.0765 70.8163 36.6765 70.8163 37.5192V43.2489C70.8163 44.3481 70.8255 45.1084 70.8438 45.5298C70.8621 45.7771 70.9766 45.9374 71.1873 46.0107L72.7812 46.4779L72.8086 47.0412C71.5445 47.0137 70.4682 47 69.5797 47C68.6912 47 67.7019 47.0137 66.6118 47.0412L66.5568 46.4779L67.9309 46.0794C68.1415 46.0061 68.256 45.8641 68.2744 45.6535C68.2927 45.3054 68.3018 44.7054 68.3018 43.8535V37.9864L61.8852 44.4855V45.5985ZM86.4802 37.5192V43.2489C86.4802 43.7985 86.4802 44.2657 86.4802 44.6504C86.4893 45.026 86.4985 45.3191 86.5077 45.5298C86.526 45.7771 86.6451 45.9374 86.8649 46.0107L88.445 46.4779L88.4725 47.0412C87.2176 47.0137 86.1413 47 85.2436 47C84.3275 47 83.3337 47.0137 82.2619 47.0412L82.207 46.4779L83.5672 46.0794C83.7871 45.997 83.9016 45.855 83.9108 45.6535C83.9291 45.4703 83.9382 45.2321 83.9382 44.939C83.9474 44.6458 83.952 44.284 83.952 43.8535V35.5132H80.7093C80.6268 37.5009 80.3887 39.3513 79.9948 41.0642C79.6101 42.768 79.0696 44.371 78.3734 45.8733C78.2635 46.1298 78.1399 46.3405 78.0025 46.5054C77.865 46.6702 77.7002 46.7985 77.5078 46.8901C77.3246 46.9817 77.1048 47.0412 76.8483 47.0687C76.6009 47.1053 76.2941 47.1237 75.9277 47.1237C75.3414 47.1237 74.6498 47.0641 73.8529 46.945L73.7842 46.4229C74.2239 46.3679 74.6086 46.2718 74.9384 46.1344C75.2681 45.997 75.5338 45.8641 75.7353 45.7359C76.2116 45.4245 76.6513 44.9664 77.0544 44.3619C77.4666 43.7573 77.8284 43.0291 78.1399 42.1772C78.4605 41.3161 78.7261 40.3497 78.9368 39.278C79.1475 38.2063 79.294 37.0475 79.3765 35.8017C79.3856 35.5635 79.2574 35.4078 78.9917 35.3345L77.2605 34.8262L77.233 34.2628C78.5429 34.2903 79.665 34.304 80.5994 34.304H85.1474C86.0817 34.304 87.1626 34.2903 88.3901 34.2628L88.445 34.8262L86.8649 35.2933C86.6542 35.3666 86.5351 35.5086 86.5077 35.7193C86.4985 35.9025 86.4893 36.1406 86.4802 36.4338C86.4802 36.7269 86.4802 37.0887 86.4802 37.5192ZM101.704 46.0244C100.926 46.5099 100.124 46.858 99.2998 47.0687C98.4754 47.2794 97.7105 47.3847 97.0052 47.3847C94.99 47.3847 93.3824 46.8122 92.1824 45.6672C90.9824 44.513 90.3824 42.9146 90.3824 40.8719C90.3824 38.8383 90.9549 37.1757 92.0999 35.8842C93.2541 34.5926 94.793 33.9468 96.7166 33.9468C98.3288 33.9468 99.5838 34.4323 100.481 35.4032C101.379 36.3651 101.828 37.6979 101.828 39.4017C101.828 39.6581 101.814 39.9192 101.787 40.1848H93.0755C93.0755 42.1543 93.5381 43.5649 94.4632 44.4168C95.3884 45.2596 96.8357 45.6809 98.8052 45.6809C99.6845 45.6809 100.623 45.5985 101.622 45.4336L101.704 46.0244ZM99.0937 39.0444V38.6322C99.0937 37.3315 98.883 36.4017 98.4617 35.8429C98.0495 35.2842 97.4311 35.0048 96.6067 35.0048C95.5167 35.0048 94.6831 35.3987 94.106 36.1864C93.5289 36.9742 93.2037 37.9269 93.1304 39.0444H99.0937ZM104.397 38.7421L103.848 38.8383L103.202 34.359L103.298 34.2628C105.094 34.2903 106.779 34.304 108.355 34.304H110.869C112.445 34.304 114.135 34.2903 115.939 34.2628L116.022 34.359L115.142 38.7421L114.593 38.8383L113.768 35.4857H110.842V43.3314C110.842 44.3573 110.851 45.0809 110.869 45.5023C110.887 45.7496 111.002 45.9054 111.213 45.9695L112.875 46.4779L112.903 47.0412C111.831 47.0137 110.732 47 109.605 47C108.698 47 107.603 47.0137 106.321 47.0412L106.266 46.4779L107.929 45.9695C108.139 45.9054 108.254 45.768 108.272 45.5573C108.291 45.2 108.3 44.6 108.3 43.7573V35.4857H105.332L104.397 38.7421Z" fill="black"/>
</svg>
