<svg width="148" height="141" viewBox="0 0 148 141" fill="none" xmlns="http://www.w3.org/2000/svg">
<path d="M73.6315 139.45L62.3588 80.1117C62.3588 80.1022 62.3491 80.0928 62.3394 80.0928L1.4594 68.3028C1.4302 68.2933 1.4302 68.2554 1.4594 68.2554L62.4562 57.5631C62.4659 57.5631 62.4757 57.5536 62.4757 57.5441L73.5925 2.09509C73.7483 1.2908 74.9359 1.30026 75.0819 2.10456L85.6537 57.7523C85.6537 57.7618 85.6634 57.7712 85.6731 57.7712L146.553 69.5518C146.582 69.5612 146.582 69.5991 146.553 69.5991L85.5563 80.2915C85.5466 80.2915 85.5369 80.3009 85.5369 80.3104L73.6899 139.44C73.6802 139.478 73.6412 139.478 73.6315 139.45Z" fill="#0000AA" stroke="black" stroke-width="2" stroke-miterlimit="10"/>
</svg>
