<svg width="537" height="511" viewBox="0 0 537 511" fill="none" xmlns="http://www.w3.org/2000/svg">
<rect x="4.08496" y="2.43115" width="530.274" height="507.478" fill="#AC80E3"/>
<path d="M19.5156 199.603C26.9992 199.127 37.9833 197.645 50.3676 192.951C69.0529 185.872 80.529 175.448 83.1497 172.996C85.7609 170.554 96.395 160.339 104.361 143.539C110.104 131.415 111.987 121.076 113.037 115.033C114.418 107.127 114.598 100.58 114.967 87.4764C115.232 77.9457 115.052 73.3086 114.967 58.0196C114.91 47.8142 114.919 38.5685 114.967 30.4631V3.85693" fill="#5B3DA2"/>
<path d="M19.5156 199.603C26.9992 199.127 37.9833 197.645 50.3676 192.951C69.0529 185.872 80.529 175.448 83.1497 172.996C85.7609 170.554 96.395 160.339 104.361 143.539C110.104 131.415 111.987 121.076 113.037 115.033C114.418 107.127 114.598 100.58 114.967 87.4764C115.232 77.9457 115.052 73.3086 114.967 58.0196C114.91 47.8142 114.919 38.5685 114.967 30.4631V3.85693" stroke="black" stroke-width="3" stroke-miterlimit="10"/>
<path d="M69.7068 249.083H2.1875V199.941H69.7068C83.7541 199.941 95.1513 210.941 95.1513 224.512C95.1513 238.083 83.7541 249.083 69.7068 249.083Z" fill="#1E0842" stroke="black" stroke-width="4" stroke-miterlimit="10"/>
<path d="M519.08 199.603C511.596 199.127 500.612 197.645 488.228 192.951C469.542 185.872 458.066 175.448 455.446 172.996C452.835 170.554 442.201 160.339 434.234 143.539C428.492 131.415 426.609 121.076 425.559 115.033C424.177 107.127 423.998 100.58 423.629 87.4764C423.364 77.9457 423.544 73.3086 423.629 58.0196C423.686 47.8142 423.676 38.5685 423.629 30.4631V3.85693" fill="#5B3DA2"/>
<path d="M519.08 199.603C511.596 199.127 500.612 197.645 488.228 192.951C469.542 185.872 458.066 175.448 455.446 172.996C452.835 170.554 442.201 160.339 434.234 143.539C428.492 131.415 426.609 121.076 425.559 115.033C424.177 107.127 423.998 100.58 423.629 87.4764C423.364 77.9457 423.544 73.3086 423.629 58.0196C423.686 47.8142 423.676 38.5685 423.629 30.4631V3.85693" stroke="black" stroke-width="3" stroke-miterlimit="10"/>
<path d="M466.471 248.844H533V199.432H466.471C452.63 199.432 441.399 210.493 441.399 224.138C441.399 237.783 452.63 248.844 466.471 248.844Z" fill="#1E0842" stroke="black" stroke-width="4" stroke-miterlimit="10"/>
<path d="M409.229 133.087H129.224C121.352 133.087 114.966 126.673 114.966 118.767V18.1768C114.966 10.2709 121.352 3.85693 129.224 3.85693H409.229C417.1 3.85693 423.486 10.2709 423.486 18.1768V118.758C423.486 126.673 417.1 133.087 409.229 133.087Z" fill="#FFC54A" stroke="#191919" stroke-width="3" stroke-miterlimit="10"/>
<path d="M380.714 97.9282H160.634C156.708 97.9282 153.529 94.7355 153.529 90.7921V45.2006C153.529 41.2572 156.708 38.0645 160.634 38.0645H380.714C384.64 38.0645 387.819 41.2572 387.819 45.2006V90.7921C387.819 94.726 384.631 97.9282 380.714 97.9282Z" fill="#ED7F4F" stroke="#191919" stroke-width="3" stroke-miterlimit="10"/>
<path d="M114.777 4.3316L4.08496 2.43115V199.602H21.001H24.2367L29.2888 198.519L29.5159 199.602" fill="#5B3DA2"/>
<path d="M114.777 4.3316L4.08496 2.43115V199.602H21.001H24.2367L29.2888 198.519L29.5159 199.602" stroke="black" stroke-width="3" stroke-miterlimit="10"/>
<path d="M424.319 4.32129H535.485V201.017L511.36 199.117" fill="#5B3DA2"/>
<path d="M424.319 4.32129H535.485V201.017L511.36 199.117" stroke="black" stroke-width="3" stroke-miterlimit="10"/>
<path d="M216.009 418.628H165.866C150.189 418.628 137.483 405.866 137.483 390.121V305.552C137.483 289.806 150.189 277.045 165.866 277.045H216.009C231.686 277.045 244.392 289.806 244.392 305.552V390.121C244.392 405.857 231.686 418.628 216.009 418.628Z" fill="#AE0007" stroke="black" stroke-width="4" stroke-miterlimit="10"/>
<path d="M368.329 418.628H318.186C302.51 418.628 289.804 405.866 289.804 390.121V305.552C289.804 289.806 302.51 277.045 318.186 277.045H368.329C384.006 277.045 396.712 289.806 396.712 305.552V390.121C396.712 405.857 384.006 418.628 368.329 418.628Z" fill="#AE0007" stroke="black" stroke-width="4" stroke-miterlimit="10"/>
<path d="M148.837 476.591H94.9095C80.2829 476.591 68.4189 464.676 68.4189 449.985V397.723C68.4189 381.978 81.1249 369.216 96.8017 369.216H148.837C163.463 369.216 175.327 381.132 175.327 395.823V449.985C175.327 464.676 163.463 476.591 148.837 476.591Z" fill="#AE0007" stroke="black" stroke-width="4" stroke-miterlimit="10"/>
<path d="M294.535 478.492H240.608C225.981 478.492 214.117 466.576 214.117 451.886V397.723C214.117 381.978 226.823 369.216 242.5 369.216H294.535C309.161 369.216 321.025 381.132 321.025 395.823V451.886C321.025 466.576 309.161 478.492 294.535 478.492Z" fill="#AE0007" stroke="black" stroke-width="4" stroke-miterlimit="10"/>
<path d="M439.286 478.492H385.359C370.733 478.492 358.869 466.576 358.869 451.886V397.723C358.869 381.978 371.575 369.216 387.251 369.216H439.286C453.913 369.216 465.777 381.132 465.777 395.823V451.886C465.777 466.576 453.913 478.492 439.286 478.492Z" fill="#AE0007" stroke="black" stroke-width="4" stroke-miterlimit="10"/>
<path d="M214.117 437.632H175.327V449.035H214.117V437.632Z" fill="black" stroke="black" stroke-width="4" stroke-miterlimit="10"/>
<path d="M358.869 437.632H321.971V449.035H358.869V437.632Z" fill="black" stroke="black" stroke-width="4" stroke-miterlimit="10"/>
<path d="M2.1875 466.683L57.1459 468.584C61.971 468.584 66.0108 467.424 67.7516 466.683C75.888 463.224 80.7225 451.584 79.3223 439.127L61.971 249.083H3.15251L2.1875 466.683Z" fill="#5B3DA2" stroke="black" stroke-width="3" stroke-miterlimit="10"/>
<path d="M534.511 466.614L479.552 468.515C474.727 468.515 470.687 467.355 468.947 466.614C460.81 463.155 455.976 451.515 457.376 439.058L474.727 249.014H533.404L534.511 466.614Z" fill="#5B3DA2" stroke="black" stroke-width="3" stroke-miterlimit="10"/>
<path d="M534.358 468.328H2.1875V508.019H534.358V468.328Z" fill="#1E0842" stroke="black" stroke-width="4" stroke-miterlimit="10"/>
</svg>
