<svg width="123" height="125" viewBox="0 0 123 125" fill="none" xmlns="http://www.w3.org/2000/svg">
<path d="M115.45 55.6275C115.45 85.3768 91.2411 109.494 61.3789 109.494C42.8051 109.494 25.1894 99.3348 15.5515 84.2239C13.512 81.0203 6.78631 70.1714 7.30805 55.6275C8.17129 31.7751 28.4241 1.76117 61.3789 1.76117C91.2411 1.76117 115.45 25.8782 115.45 55.6275Z" fill="#FB8335" stroke="black" stroke-width="2" stroke-miterlimit="10"/>
<path d="M13.1228 80.0755C2.10947 98.1255 -1.52371 113.492 5.14502 120.145C15.9971 130.956 49.9954 114.616 81.0908 83.6383C112.186 52.6604 128.588 18.7907 117.736 7.97963C112.585 2.84815 102.235 3.83099 89.4481 9.58618" stroke="black" stroke-width="3" stroke-miterlimit="10"/>
<path d="M69.4419 34.3643C73.6331 34.3643 77.0308 30.9795 77.0308 26.8041C77.0308 22.6287 73.6331 19.2439 69.4419 19.2439C65.2507 19.2439 61.853 22.6287 61.853 26.8041C61.853 30.9795 65.2507 34.3643 69.4419 34.3643Z" fill="#FF572E" stroke="black" stroke-miterlimit="10"/>
</svg>
