<svg width="146" height="266" viewBox="0 0 146 266" fill="none" xmlns="http://www.w3.org/2000/svg">
<path d="M145.032 0.506836H0.842773V265.114H145.032V0.506836Z" fill="black"/>
<path d="M35.9413 0.506836H0.842773V265.114H35.9413V0.506836Z" fill="#B1DAF6"/>
<path d="M54.1113 27.9604C59.6342 27.9604 64.1113 23.4833 64.1113 17.9604C64.1113 12.4376 59.6342 7.96045 54.1113 7.96045C48.5885 7.96045 44.1113 12.4376 44.1113 17.9604C44.1113 23.4833 48.5885 27.9604 54.1113 27.9604Z" fill="#1EC6A5"/>
<path d="M72.2178 141.79C79.1213 141.79 84.7178 136.193 84.7178 129.29C84.7178 122.386 79.1213 116.79 72.2178 116.79C65.3142 116.79 59.7178 122.386 59.7178 129.29C59.7178 136.193 65.3142 141.79 72.2178 141.79Z" fill="#F4BD3E"/>
<path d="M105.681 201.346C110.652 201.346 114.681 197.316 114.681 192.346C114.681 187.375 110.652 183.346 105.681 183.346C100.711 183.346 96.6812 187.375 96.6812 192.346C96.6812 197.316 100.711 201.346 105.681 201.346Z" fill="#F896BF" stroke="black" stroke-width="2" stroke-miterlimit="10"/>
<path d="M57.6196 221.413C61.2095 221.413 64.1196 218.502 64.1196 214.913C64.1196 211.323 61.2095 208.413 57.6196 208.413C54.0298 208.413 51.1196 211.323 51.1196 214.913C51.1196 218.502 54.0298 221.413 57.6196 221.413Z" fill="#F4BD3E"/>
<path d="M38 187C48.4934 187 57 178.493 57 168C57 157.507 48.4934 149 38 149C27.5066 149 19 157.507 19 168C19 178.493 27.5066 187 38 187Z" fill="#B0DCF7" stroke="black" stroke-width="2" stroke-miterlimit="10"/>
<path d="M37 149C47.488 149 56 157.502 56 168C56 178.498 47.4981 187 37 187" fill="#765AA4"/>
<path d="M37 149C47.488 149 56 157.502 56 168C56 178.498 47.4981 187 37 187" stroke="black" stroke-width="2" stroke-miterlimit="10"/>
<path d="M96.2136 106.896L94.6198 96.8335L86.0029 94.8353V94.8251L94.6373 93.0104L96.2136 83.6106C96.2399 83.4781 96.4062 83.4781 96.4238 83.6106L97.9212 93.0512L106.538 95.0494V95.0596L97.9037 96.8743L96.2136 106.896C96.2223 106.896 96.2136 106.896 96.2136 106.896Z" fill="#FFBE00"/>
<path d="M96.2136 106.896L94.6198 96.8335L86.0029 94.8353V94.8251L94.6373 93.0104L96.2136 83.6106C96.2399 83.4781 96.4062 83.4781 96.4238 83.6106L97.9212 93.0512L106.538 95.0494V95.0596L97.9037 96.8743L96.2136 106.896ZM96.2136 106.896C96.2223 106.896 96.2136 106.896 96.2136 106.896Z" stroke="black" stroke-miterlimit="10"/>
<path d="M120.016 95.1938L117.526 82.0426L104.081 79.426C104.071 79.426 104.071 79.4162 104.081 79.4162L117.546 77.0447L119.996 64.7558C120.036 64.5794 120.287 64.5794 120.327 64.7558L122.657 77.0937L136.101 79.7102C136.111 79.7102 136.111 79.72 136.101 79.72L122.637 82.0916L120.016 95.2036C120.026 95.2036 120.016 95.2036 120.016 95.1938Z" fill="#FFBE00" stroke="black" stroke-miterlimit="10"/>
<path d="M88.8855 17.854L91.1778 36.7144L107.755 24.8264L94.4417 39.6317L115.574 41.6884L94.4417 43.7451L107.755 58.5359L91.1778 46.6478L88.8855 65.5228L86.578 46.6478L70.0003 58.5359L83.314 43.7451L62.1821 41.6884L83.314 39.6317L70.0003 24.8264L86.578 36.7144L88.8855 17.854Z" fill="#FFC54A"/>
</svg>
