<svg width="108" height="124" viewBox="0 0 108 124" fill="none" xmlns="http://www.w3.org/2000/svg">
<path d="M106.241 1.61823V122.581H103.187V118.007C103.187 116.656 102.109 115.56 100.795 115.56H98.7191C97.3959 115.56 96.3264 116.656 96.3264 118.007V122.581H90.9883V118.036C90.9883 111.921 86.1395 106.969 80.1669 106.969H28.5526C22.58 106.969 17.7313 111.921 17.7313 118.036V122.581H13.1544V118.007C13.1544 116.656 12.0759 115.56 10.7618 115.56H8.68631C7.3631 115.56 6.29366 116.656 6.29366 118.007V122.581H1.7168V1.61823H5.53236V6.96706C5.53236 8.31844 6.61087 9.41467 7.92501 9.41467H10.0005C11.3237 9.41467 12.3931 8.31844 12.3931 6.96706V1.61823H17.7313V7.72307C17.7313 13.8374 22.58 18.7893 28.5526 18.7893H80.1579C86.1305 18.7893 90.9792 13.8374 90.9792 7.72307V1.61823H96.3174V6.96706C96.3174 8.31844 97.3959 9.41467 98.71 9.41467H100.785C102.109 9.41467 103.178 8.31844 103.178 6.96706V1.61823H106.241Z" fill="#ED7F4F" stroke="#191919" stroke-width="2" stroke-miterlimit="10"/>
<path d="M98.8825 33.6165H97.8039C96.236 33.6165 94.958 32.284 94.958 30.6491V23.3157C94.958 21.6808 96.236 20.3483 97.8039 20.3483H98.8825C100.45 20.3483 101.728 21.6808 101.728 23.3157V30.6491C101.728 32.284 100.45 33.6165 98.8825 33.6165Z" fill="#FF6E28" stroke="#191919" stroke-width="2" stroke-miterlimit="10"/>
<path d="M98.8825 57.0246H97.8039C96.236 57.0246 94.958 55.6921 94.958 54.0572V46.7239C94.958 45.089 96.236 43.7565 97.8039 43.7565H98.8825C100.45 43.7565 101.728 45.089 101.728 46.7239V54.0572C101.728 55.7016 100.45 57.0246 98.8825 57.0246Z" fill="#FF6E28" stroke="#191919" stroke-width="2" stroke-miterlimit="10"/>
<path d="M98.8825 81.2177H97.8039C96.236 81.2177 94.958 79.8852 94.958 78.2503V70.9169C94.958 69.2821 96.236 67.9496 97.8039 67.9496H98.8825C100.45 67.9496 101.728 69.2821 101.728 70.9169V78.2503C101.728 79.8947 100.45 81.2177 98.8825 81.2177Z" fill="#FF6E28" stroke="#191919" stroke-width="2" stroke-miterlimit="10"/>
<path d="M98.8825 104.635H97.8039C96.236 104.635 94.958 103.303 94.958 101.668V94.3347C94.958 92.6998 96.236 91.3674 97.8039 91.3674H98.8825C100.45 91.3674 101.728 92.6998 101.728 94.3347V101.668C101.728 103.303 100.45 104.635 98.8825 104.635Z" fill="#FF6E28" stroke="#191919" stroke-width="2" stroke-miterlimit="10"/>
<path d="M76.8409 94.4857H30.3563C23.2599 94.4857 17.5049 88.4848 17.5049 81.0853V44.6735C17.5049 37.274 23.2599 31.2731 30.3563 31.2731H76.8409C83.9373 31.2731 89.6924 37.274 89.6924 44.6735V81.0853C89.6924 88.4848 83.9464 94.4857 76.8409 94.4857Z" fill="#FF6E28" stroke="#191919" stroke-width="2" stroke-miterlimit="10"/>
<path d="M9.39315 33.6165H8.32374C6.75588 33.6165 5.47803 32.284 5.47803 30.6491V23.3157C5.47803 21.6808 6.75588 20.3483 8.32374 20.3483H9.40221C10.9701 20.3483 12.2479 21.6808 12.2479 23.3157V30.6491C12.2389 32.284 10.9701 33.6165 9.39315 33.6165Z" fill="#FF6E28" stroke="#191919" stroke-width="2" stroke-miterlimit="10"/>
<path d="M9.39315 57.0246H8.32374C6.75588 57.0246 5.47803 55.6921 5.47803 54.0572V46.7239C5.47803 45.089 6.75588 43.7565 8.32374 43.7565H9.40221C10.9701 43.7565 12.2479 45.089 12.2479 46.7239V54.0572C12.2389 55.7016 10.9701 57.0246 9.39315 57.0246Z" fill="#FF6E28" stroke="#191919" stroke-width="2" stroke-miterlimit="10"/>
<path d="M9.39315 81.2177H8.32374C6.75588 81.2177 5.47803 79.8852 5.47803 78.2503V70.9169C5.47803 69.2821 6.75588 67.9496 8.32374 67.9496H9.40221C10.9701 67.9496 12.2479 69.2821 12.2479 70.9169V78.2503C12.2389 79.8947 10.9701 81.2177 9.39315 81.2177Z" fill="#FF6E28" stroke="#191919" stroke-width="2" stroke-miterlimit="10"/>
<path d="M9.39315 104.635H8.32374C6.75588 104.635 5.47803 103.303 5.47803 101.668V94.3347C5.47803 92.6998 6.75588 91.3674 8.32374 91.3674H9.40221C10.9701 91.3674 12.2479 92.6998 12.2479 94.3347V101.668C12.2389 103.303 10.9701 104.635 9.39315 104.635Z" fill="#FF6E28" stroke="#191919" stroke-width="2" stroke-miterlimit="10"/>
</svg>
