<svg width="104" height="113" viewBox="0 0 104 113" fill="none" xmlns="http://www.w3.org/2000/svg">
<path d="M45.118 103.394C69.2176 103.394 88.7542 84.1433 88.7542 60.3958C88.7542 36.6483 69.2176 17.3972 45.118 17.3972C21.0185 17.3972 1.48193 36.6483 1.48193 60.3958C1.48193 84.1433 21.0185 103.394 45.118 103.394Z" fill="#ED844A" stroke="black" stroke-width="2" stroke-miterlimit="10"/>
<path d="M88.7542 95.8344C88.1456 96.7793 87.5132 97.7243 86.8569 98.6693" stroke="black" stroke-width="2" stroke-miterlimit="10"/>
<path d="M95.3944 91.1089C94.0133 93.944 92.4287 96.7791 90.6514 99.6143" stroke="black" stroke-width="2" stroke-miterlimit="10"/>
<path d="M100.614 46.6927C103.458 60.2381 102.03 73.7834 96.3428 87.3287" stroke="black" stroke-width="2" stroke-miterlimit="10"/>
<path d="M97.2915 37.2426C97.9867 38.5055 98.6094 39.7597 99.1887 41.0226" stroke="black" stroke-width="2" stroke-miterlimit="10"/>
<path d="M88.7539 17.3972C90.5369 20.5503 92.118 23.7034 93.4969 26.8474" stroke="black" stroke-width="2" stroke-miterlimit="10"/>
<path d="M86.8567 18.342C90.0001 18.342 92.5484 15.8034 92.5484 12.6719C92.5484 9.54042 90.0001 7.00183 86.8567 7.00183C83.7133 7.00183 81.165 9.54042 81.165 12.6719C81.165 15.8034 83.7133 18.342 86.8567 18.342Z" fill="#F4BD3E" stroke="black" stroke-miterlimit="10"/>
<path d="M35.6319 88.2737C41.9187 88.2737 47.0152 83.1965 47.0152 76.9334C47.0152 70.6704 41.9187 65.5931 35.6319 65.5931C29.345 65.5931 24.2485 70.6704 24.2485 76.9334C24.2485 83.1965 29.345 88.2737 35.6319 88.2737Z" fill="#B0DCF7" stroke="black" stroke-miterlimit="10"/>
<path d="M69.782 75.9888C70.8298 75.9888 71.6792 75.1425 71.6792 74.0986C71.6792 73.0547 70.8298 72.2085 69.782 72.2085C68.7342 72.2085 67.8848 73.0547 67.8848 74.0986C67.8848 75.1425 68.7342 75.9888 69.782 75.9888Z" fill="#765AA4" stroke="black" stroke-miterlimit="10"/>
<path d="M23.3003 48.583C25.3959 48.583 27.0947 46.8906 27.0947 44.8029C27.0947 42.7151 25.3959 41.0227 23.3003 41.0227C21.2047 41.0227 19.5059 42.7151 19.5059 44.8029C19.5059 46.8906 21.2047 48.583 23.3003 48.583Z" fill="#1EC6A5" stroke="black" stroke-miterlimit="10"/>
<path d="M62.6676 50.473C65.549 50.473 67.8849 48.146 67.8849 45.2754C67.8849 42.4048 65.549 40.0778 62.6676 40.0778C59.7861 40.0778 57.4502 42.4048 57.4502 45.2754C57.4502 48.146 59.7861 50.473 62.6676 50.473Z" fill="#F4BD3E" stroke="black" stroke-miterlimit="10"/>
<path d="M73 7C74.6569 7 76 5.65685 76 4C76 2.34315 74.6569 1 73 1C71.3431 1 70 2.34315 70 4C70 5.65685 71.3431 7 73 7Z" fill="#765AA4" stroke="black" stroke-miterlimit="10"/>
<path d="M14.288 111.9C15.5978 111.9 16.6595 110.842 16.6595 109.537C16.6595 108.232 15.5978 107.175 14.288 107.175C12.9783 107.175 11.9165 108.232 11.9165 109.537C11.9165 110.842 12.9783 111.9 14.288 111.9Z" stroke="black" stroke-miterlimit="10"/>
<path d="M1.48193 61.8134H28.9917" stroke="black" stroke-miterlimit="10" stroke-linecap="round"/>
<path d="M43.2207 25.9022H70.7304" stroke="black" stroke-miterlimit="10" stroke-linecap="round"/>
<path d="M2.43066 66.5382H17.6084" stroke="black" stroke-miterlimit="10" stroke-linecap="round"/>
<path d="M62.1934 91.1089H75.4739" stroke="black" stroke-miterlimit="10" stroke-linecap="round"/>
<path d="M65.9873 94.8893H71.679" stroke="black" stroke-miterlimit="10" stroke-linecap="round"/>
</svg>
