<svg width="224" height="550" viewBox="0 0 224 550" fill="none" xmlns="http://www.w3.org/2000/svg">
<path d="M42.3403 398.734L41.2743 548.047H2.49854L3.38002 471.49C3.49277 461.536 6.55753 451.801 12.236 443.383L42.3403 398.734Z" fill="#E761B6" stroke="black" stroke-width="3" stroke-miterlimit="10"/>
<path d="M181.786 398.734L182.852 548.047H221.628L220.654 463.745C220.593 458.854 219.096 454.076 216.308 449.943L181.786 398.734Z" fill="#E761B6" stroke="black" stroke-width="3" stroke-miterlimit="10"/>
<path d="M182.735 114.282H41.3916V548.048H182.735V114.282Z" fill="#004FFF" stroke="black" stroke-width="3" stroke-miterlimit="10"/>
<path d="M165.66 113.336L111.589 3.71362L57.5181 113.336" fill="#5B3DA2"/>
<path d="M165.66 113.336L111.589 3.71362L57.5181 113.336" stroke="black" stroke-width="3" stroke-miterlimit="10"/>
<path d="M42.3403 144.522H182.735" stroke="black" stroke-width="3" stroke-miterlimit="10"/>
<path d="M118.055 496.832C135.742 498.137 151.284 491.899 164.055 476" stroke="white" stroke-width="4" stroke-miterlimit="10" stroke-linecap="round"/>
<path d="M156.09 503.302C152.291 507.101 147.722 509 142.384 509C137.096 509 132.553 507.101 128.755 503.302C124.956 499.503 123.057 494.96 123.057 489.673C123.057 484.334 124.956 479.766 128.755 475.967C132.502 472.22 137.045 470.346 142.384 470.346C147.774 470.346 152.342 472.22 156.09 475.967C159.837 479.714 161.711 484.283 161.711 489.673C161.711 495.012 159.837 499.555 156.09 503.302ZM150.7 481.357C148.287 479.098 145.515 477.969 142.384 477.969C139.15 477.969 136.403 479.098 134.145 481.357C131.835 483.667 130.68 486.439 130.68 489.673C130.68 492.856 131.835 495.602 134.145 497.912C136.403 500.222 139.15 501.377 142.384 501.377C145.618 501.377 148.39 500.222 150.7 497.912C152.958 495.499 154.088 492.753 154.088 489.673C154.088 486.542 152.958 483.77 150.7 481.357Z" fill="white"/>
<path d="M117.948 493.93C135.324 493.603 150.258 487.495 162.055 474" stroke="#004FFF" stroke-width="4" stroke-miterlimit="10" stroke-linecap="round"/>
</svg>
