<svg width="112" height="90" viewBox="0 0 112 90" fill="none" xmlns="http://www.w3.org/2000/svg">
<path d="M35.6886 71.9266V83.7393C35.6886 86.3665 37.8899 88.4987 40.6021 88.4987H105.638C108.35 88.4987 110.551 86.3665 110.551 83.7393V39.3916C110.551 36.7644 108.35 34.6322 105.638 34.6322H40.6021C37.8899 34.6322 35.6886 36.7644 35.6886 39.3916V51.2043L8.57573 38.078C5.31315 36.4979 1.46094 38.8014 1.46094 42.3328V79.1513C1.46094 82.5875 5.09695 84.8911 8.33989 83.5109L35.6886 71.9266Z" fill="#765AA4" stroke="black" stroke-width="2" stroke-miterlimit="10"/>
<path d="M53.6345 33.6871C63.0648 33.6871 70.7095 26.4944 70.7095 17.6218C70.7095 8.74911 63.0648 1.5564 53.6345 1.5564C44.2043 1.5564 36.5596 8.74911 36.5596 17.6218C36.5596 26.4944 44.2043 33.6871 53.6345 33.6871Z" fill="#666668" stroke="black" stroke-width="2" stroke-miterlimit="10"/>
<path d="M87.785 33.6871C97.2152 33.6871 104.86 26.4944 104.86 17.6218C104.86 8.74911 97.2152 1.5564 87.785 1.5564C78.3547 1.5564 70.71 8.74911 70.71 17.6218C70.71 26.4944 78.3547 33.6871 87.785 33.6871Z" fill="#666668" stroke="black" stroke-width="2" stroke-miterlimit="10"/>
</svg>
